<?xml version="1.0" encoding="UTF-8" standalone="no"?>
<!-- Created with Inkscape (http://www.inkscape.org/) -->

<svg
   width="315"
   height="300"
   viewBox="0 0 83.343746 79.374996"
   version="1.1"
   id="svg1"
   inkscape:version="1.3.2 (091e20e, 2023-11-25, custom)"
   sodipodi:docname="nocap-logo.svg"
   xmlns:inkscape="http://www.inkscape.org/namespaces/inkscape"
   xmlns:sodipodi="http://sodipodi.sourceforge.net/DTD/sodipodi-0.dtd"
   xmlns:xlink="http://www.w3.org/1999/xlink"
   xmlns="http://www.w3.org/2000/svg"
   xmlns:svg="http://www.w3.org/2000/svg">
  <sodipodi:namedview
     id="namedview1"
     pagecolor="#000000"
     bordercolor="#ffffff"
     borderopacity="0.24705882"
     inkscape:showpageshadow="2"
     inkscape:pageopacity="0.0"
     inkscape:pagecheckerboard="0"
     inkscape:deskcolor="#000000"
     inkscape:document-units="mm"
     inkscape:zoom="2.8970538"
     inkscape:cx="193.29983"
     inkscape:cy="137.55354"
     inkscape:window-width="2400"
     inkscape:window-height="1261"
     inkscape:window-x="-9"
     inkscape:window-y="-3"
     inkscape:window-maximized="1"
     inkscape:current-layer="layer1" />
  <defs
     id="defs1">
    <linearGradient
       id="linearGradient30"
       inkscape:collect="always">
      <stop
         style="stop-color:#ffffff;stop-opacity:0;"
         offset="0"
         id="stop30" />
      <stop
         style="stop-color:#ffffff;stop-opacity:0;"
         offset="1"
         id="stop31" />
    </linearGradient>
    <inkscape:path-effect
       effect="bspline"
       id="path-effect10"
       is_visible="true"
       lpeversion="1.3"
       weight="33.333333"
       steps="2"
       helper_size="0"
       apply_no_weight="true"
       apply_with_weight="true"
       only_selected="false"
       uniform="false" />
    <radialGradient
       inkscape:collect="always"
       xlink:href="#linearGradient30"
       id="radialGradient31"
       cx="595.88141"
       cy="327.27814"
       fx="595.88141"
       fy="327.27814"
       r="69.828918"
       gradientTransform="matrix(0.22429948,0,0,0.15605842,-189.60525,8.5317988)"
       gradientUnits="userSpaceOnUse" />
    <radialGradient
       inkscape:collect="always"
       xlink:href="#linearGradient30"
       id="radialGradient31-5"
       cx="595.88141"
       cy="327.27814"
       fx="595.88141"
       fy="327.27814"
       r="69.828918"
       gradientTransform="matrix(0.22429948,0,0,0.15605842,-79.783444,24.484699)"
       gradientUnits="userSpaceOnUse" />
    <radialGradient
       inkscape:collect="always"
       xlink:href="#linearGradient30"
       id="radialGradient10"
       gradientUnits="userSpaceOnUse"
       gradientTransform="matrix(0.22429948,0,0,0.15605842,-79.783444,24.484699)"
       cx="595.88141"
       cy="327.27814"
       fx="595.88141"
       fy="327.27814"
       r="69.828918" />
    <radialGradient
       inkscape:collect="always"
       xlink:href="#linearGradient30"
       id="radialGradient19"
       gradientUnits="userSpaceOnUse"
       gradientTransform="matrix(0.22429948,0,0,0.15605842,-79.783444,24.484699)"
       cx="595.88141"
       cy="327.27814"
       fx="595.88141"
       fy="327.27814"
       r="69.828918" />
    <radialGradient
       inkscape:collect="always"
       xlink:href="#linearGradient30"
       id="radialGradient30"
       gradientUnits="userSpaceOnUse"
       gradientTransform="matrix(0.22429948,0,0,0.15605842,-79.783444,24.484699)"
       cx="595.88141"
       cy="327.27814"
       fx="595.88141"
       fy="327.27814"
       r="69.828918" />
    <radialGradient
       inkscape:collect="always"
       xlink:href="#linearGradient30"
       id="radialGradient38"
       gradientUnits="userSpaceOnUse"
       gradientTransform="matrix(0.22429948,0,0,0.15605842,-79.783444,24.484699)"
       cx="595.88141"
       cy="327.27814"
       fx="595.88141"
       fy="327.27814"
       r="69.828918" />
  </defs>
  <g
     inkscape:label="Layer 1"
     inkscape:groupmode="layer"
     id="layer1">
    <path
       style="fill:#ffffff;fill-opacity:1;fill-rule:evenodd;stroke:#ffffff;stroke-width:0.316954;stroke-linejoin:round;stroke-opacity:0"
       d="m -39.335254,73.607453 3.85091,-29.937202 -0.48062,32.33417 -38.750503,-1.405834 z"
       id="path15"
       sodipodi:nodetypes="ccccc" />
    <path
       style="fill:#ffffff;fill-opacity:0;fill-rule:evenodd;stroke:#ffffff;stroke-width:0.329774;stroke-linejoin:round;stroke-opacity:0"
       d="m -81.305701,78.535808 c 0,0 -0.158817,0.175729 0.561309,-0.411301 1.021026,-0.8323 19.699398,-17.168619 19.699398,-17.168619 l 10.9941,10.994103 20.51718,-41.344037 -3.01951,4.800245 -18.58159,29.885394 -9.755339,-9.445642 z"
       id="path14"
       sodipodi:nodetypes="csccccccc" />
    <path
       style="fill:#ffffff;fill-opacity:1;fill-rule:evenodd;stroke:#ffffff;stroke-width:0.281875;stroke-linejoin:round;stroke-opacity:0"
       d="m -72.39116,39.586812 -2.647121,34.444607 -2.420739,-38.516397 29.388266,2.931418 z"
       id="path23"
       sodipodi:nodetypes="ccccc" />
    <path
       style="fill:#ffffff;fill-opacity:1;fill-rule:evenodd;stroke:#ffffff;stroke-width:0.329774;stroke-linejoin:round;stroke-opacity:0"
       d="m -79.455216,82.004435 16.42397,-32.081468 11.606262,10.730322 26.9353,-31.205529 -27.15428,27.482765 -11.606272,-10.073364 z"
       id="path24"
       sodipodi:nodetypes="ccccccc" />
    <path
       style="fill:#ffffff;fill-opacity:1;fill-rule:evenodd;stroke:#ffffff;stroke-width:0.358852;stroke-linejoin:round;stroke-opacity:0"
       d=""
       id="path27"
       transform="scale(0.26458333)" />
    <path
       style="fill:#ffffff;fill-opacity:0;fill-rule:evenodd;stroke:#ffffff;stroke-width:0.329774;stroke-linejoin:round;stroke-opacity:0"
       d="m -73.433091,71.712088 c 0.328477,-0.437971 10.401845,-10.620826 10.401845,-10.620826 l 11.277782,9.744884 13.02968,-24.635945"
       id="path28" />
    <path
       style="fill:#ffffff;fill-opacity:1;fill-rule:evenodd;stroke:url(#radialGradient31);stroke-width:0.0804904;stroke-linejoin:round;stroke-opacity:0"
       d="m -57.364984,65.715968 c -4.450987,-3.852178 -5.55609,-4.783173 -5.666264,-4.77354 -0.136722,0.01195 -1.53537,1.402861 -6.639155,6.602401 -1.045717,1.06534 -1.901305,1.920022 -1.901305,1.899292 0,-0.03161 2.29014,-3.084816 7.416946,-9.888236 l 0.930103,-1.234273 5.333255,5.039157 c 3.89472,3.679951 5.37163,5.043192 5.47555,5.05412 0.13421,0.01411 0.48131,-0.545234 6.10598,-9.83982 3.28003,-5.420133 5.97344,-9.845025 5.98537,-9.833094 0.0218,0.02182 -11.40236,21.65065 -11.47316,21.721535 -0.0209,0.02088 -2.52615,-2.115514 -5.56732,-4.747542 z"
       id="path30" />
    <g
       id="g1"
       transform="translate(-194.57531,79.568858)">
      <path
         style="fill:#ffffff;fill-opacity:1;fill-rule:evenodd;stroke:#ffffff;stroke-width:0.316954;stroke-linejoin:round;stroke-opacity:0"
         d="m 53.518587,52.342113 3.85091,-29.937202 -0.48062,32.33417 -38.750498,-1.405834 z"
         id="path15-9"
         sodipodi:nodetypes="ccccc" />
      <path
         style="fill:#ffffff;fill-opacity:0;fill-rule:evenodd;stroke:#ffffff;stroke-width:0.329774;stroke-linejoin:round;stroke-opacity:0"
         d="m 11.548145,57.270468 c 0,0 -0.158817,0.175729 0.561309,-0.411301 1.021026,-0.8323 19.699393,-17.168619 19.699393,-17.168619 l 10.9941,10.994103 20.51718,-41.3440368 -3.01951,4.8002448 -18.58159,29.885394 -9.75533,-9.445642 z"
         id="path14-9"
         sodipodi:nodetypes="csccccccc" />
      <path
         style="fill:#ffffff;fill-opacity:1;fill-rule:evenodd;stroke:#ffffff;stroke-width:0.281875;stroke-linejoin:round;stroke-opacity:0"
         d="M 20.462686,18.321472 17.815565,52.766079 15.394826,14.249682 44.783087,17.1811 Z"
         id="path23-9"
         sodipodi:nodetypes="ccccc" />
      <path
         style="fill:#ffffff;fill-opacity:1;fill-rule:evenodd;stroke:#ffffff;stroke-width:0.329774;stroke-linejoin:round;stroke-opacity:0"
         d="M 14.986131,59.680758 31.410097,27.599293 43.016367,38.329615 69.951667,7.1240862 42.797387,34.606851 31.191107,24.533487 Z"
         id="path24-1"
         sodipodi:nodetypes="ccccccc" />
      <path
         style="fill:#ffffff;fill-opacity:0;fill-rule:evenodd;stroke:#ffffff;stroke-width:0.329774;stroke-linejoin:round;stroke-opacity:0"
         d="M 19.420755,50.446748 C 19.749232,50.008777 29.822597,39.825922 29.822597,39.825922 l 11.27778,9.744884 13.02968,-24.635945"
         id="path28-7" />
      <g
         id="path30-9"
         transform="translate(-14.359732,-41.130584)">
        <path
           style="color:#000000;fill:#ffffff;fill-rule:evenodd;stroke-linejoin:round;-inkscape-stroke:none"
           d="m 52.456823,81.668868 c -4.450987,-3.852178 -5.55609,-4.783173 -5.666264,-4.77354 -0.136722,0.01195 -1.53537,1.402861 -6.639155,6.602401 -1.045717,1.06534 -1.901305,1.920022 -1.901305,1.899292 0,-0.03161 2.29014,-3.084816 7.416946,-9.888236 l 0.930103,-1.234273 5.333255,5.039157 c 3.89472,3.679951 5.37163,5.043192 5.47555,5.05412 0.13421,0.01411 0.755295,-0.49957 6.379965,-9.794156 3.28003,-5.420133 6.475747,-9.913521 6.487677,-9.90159 0.0218,0.02182 -12.178652,21.673482 -12.249452,21.744367 -0.0209,0.02088 -2.52615,-2.115514 -5.56732,-4.747542 z"
           id="path1"
           sodipodi:nodetypes="ssssscsssscs" />
        <path
           style="color:#000000;fill:url(#radialGradient31-5);fill-opacity:0;fill-rule:evenodd;stroke-linejoin:round;-inkscape-stroke:none"
           d="m 69.474609,64.662109 c -1.28e-4,8.9e-5 -0.0076,0.0056 -0.0078,0.0059 -4.2e-4,4.47e-4 -0.0027,0.0043 -0.0039,0.0059 -0.0023,0.0031 -0.0048,0.0054 -0.0078,0.0098 -0.0059,0.0088 -0.01471,0.02238 -0.02539,0.03906 -0.02137,0.03337 -0.05115,0.08315 -0.0918,0.148438 -0.08129,0.130584 -0.200775,0.323305 -0.353516,0.572265 -0.305482,0.497921 -0.746626,1.21823 -1.289063,2.109375 -1.084873,1.782292 -2.578721,4.24499 -4.21875,6.955078 -2.812327,4.647281 -4.304974,7.110715 -5.111328,8.410157 -0.403176,0.649721 -0.633444,1.007258 -0.771484,1.201172 -0.06902,0.09696 -0.116824,0.153068 -0.146484,0.18164 -0.02966,0.02857 -0.03498,0.02757 -0.03711,0.02734 0.01268,0.0013 -0.0017,-0.0013 -0.01758,-0.01172 -0.01584,-0.01041 -0.03795,-0.02648 -0.06641,-0.04883 C 57.269284,84.222984 57.186786,84.15383 57.0801,84.060653 56.866706,83.874193 56.551586,83.588465 56.117187,83.1875 55.248391,82.385571 53.9063,81.12509 51.958984,79.285156 L 46.625,74.246094 a 0.04024923,0.04024923 0 0 0 -0.06055,0.0039 l -0.929687,1.234375 c -2.563409,3.401717 -4.417437,5.866646 -5.63086,7.484375 -0.606711,0.808864 -1.052772,1.405644 -1.347656,1.802734 -0.147442,0.198546 -0.257294,0.34726 -0.330078,0.447266 -0.03639,0.05 -0.06373,0.08712 -0.08203,0.113281 -0.0092,0.01308 -0.01652,0.0236 -0.02148,0.03125 -0.0025,0.0038 -0.004,0.0065 -0.0059,0.0098 -9.17e-4,0.0016 -8.36e-4,0.0034 -0.002,0.0059 -5.59e-4,0.0012 -0.0019,0.0056 -0.002,0.0059 -7e-5,2.15e-4 -0.0039,0.01159 -0.0039,0.01172 0,8.1e-5 0.0039,0.01752 0.0039,0.01758 2.6e-5,5.5e-5 0.01753,0.0195 0.01758,0.01953 5.2e-5,2.7e-5 0.01945,0.0039 0.01953,0.0039 7.8e-5,10e-7 0.0097,-0.0019 0.0098,-0.002 2.07e-4,-5.1e-5 0.0095,-0.0018 0.0098,-0.002 3.11e-4,-1.56e-4 0.0027,-0.0032 0.0039,-0.0039 0.0048,-0.003 0.0079,-0.0046 0.01172,-0.0078 0.0077,-0.0064 0.01827,-0.01537 0.03125,-0.02734 0.02596,-0.02395 0.06293,-0.06037 0.111328,-0.107422 0.0968,-0.0941 0.23778,-0.232102 0.410157,-0.404297 0.344754,-0.344389 0.818864,-0.824676 1.341796,-1.357421 2.55186,-2.599736 4.177212,-4.247225 5.181641,-5.246094 0.502215,-0.499435 0.850701,-0.836174 1.080078,-1.048828 0.114689,-0.106327 0.199831,-0.182234 0.259766,-0.230469 0.02997,-0.02412 0.05339,-0.03999 0.07031,-0.05078 0.01692,-0.01079 0.03028,-0.01427 0.02344,-0.01367 -0.0086,7.5e-4 -8.64e-4,-1.13e-4 0.01172,0.0059 0.01258,0.006 0.03084,0.01579 0.05469,0.03125 0.04769,0.03091 0.117077,0.0816 0.210938,0.154297 0.187721,0.145402 0.475409,0.381901 0.898437,0.738281 0.846057,0.712761 2.233526,1.907926 4.458984,3.833985 1.520645,1.316065 2.908786,2.508553 3.917969,3.36914 0.504592,0.430294 0.913702,0.776988 1.199219,1.015625 0.142758,0.119319 0.255213,0.211576 0.332031,0.273438 0.03841,0.03093 0.06689,0.0546 0.08789,0.07031 0.0105,0.0079 0.01839,0.01307 0.02539,0.01758 0.0035,0.0023 0.0071,0.0056 0.01172,0.0078 0.0023,0.0011 0.01125,0.0019 0.01172,0.002 2.33e-4,5e-5 0.01156,0.002 0.01172,0.002 1.57e-4,-1.6e-5 0.02531,-0.01164 0.02539,-0.01172 2.77e-4,-2.76e-4 0.0047,-0.0061 0.0059,-0.0078 0.0011,-0.0017 0.0028,-0.004 0.0039,-0.0059 0.0023,-0.0037 0.0044,-0.0078 0.0078,-0.01367 0.0068,-0.01183 0.01544,-0.02918 0.02734,-0.05078 0.0238,-0.0432 0.05971,-0.106289 0.103516,-0.1875 0.08761,-0.162421 0.213475,-0.398117 0.373047,-0.697265 0.319142,-0.598296 0.770224,-1.449729 1.310547,-2.46875 1.080646,-2.038041 2.514224,-4.747622 3.945312,-7.457031 1.431089,-2.70941 2.860616,-5.417311 3.929688,-7.449219 0.534535,-1.015954 0.978601,-1.863334 1.289062,-2.457031 0.155231,-0.296849 0.276823,-0.529709 0.359375,-0.689454 0.04128,-0.07987 0.07266,-0.141799 0.09375,-0.183593 0.01055,-0.0209 0.01806,-0.03765 0.02344,-0.04883 10e-4,-0.0022 0.0011,-0.004 0.002,-0.0059 0.0014,-0.0029 0.0049,-0.0055 0.0059,-0.0078 8.04e-4,-0.0018 0.0011,-0.0034 0.002,-0.0059 8.79e-4,-0.0025 -0.0097,-0.04288 -0.0098,-0.04297 -4.7e-5,-4.7e-5 -0.05065,-0.004 -0.05078,-0.0039 z M 69.003906,65.5625 c -0.01097,0.02099 -0.01406,0.02911 -0.02539,0.05078 -0.310401,0.593581 -0.756497,1.441109 -1.291016,2.457031 -1.069038,2.031846 -2.496661,4.737885 -3.927734,7.447266 -1.431074,2.709381 -2.8647,5.421006 -3.945313,7.458984 -0.540306,1.01899 -0.993418,1.870568 -1.3125,2.46875 -0.159541,0.299092 -0.285548,0.535061 -0.373047,0.697266 -0.04375,0.0811 -0.07798,0.142746 -0.101562,0.185547 -0.0076,0.01371 -0.01222,0.0217 -0.01758,0.03125 -0.0194,-0.01465 -0.04447,-0.03578 -0.08008,-0.06445 -0.07607,-0.06126 -0.187512,-0.152327 -0.330078,-0.271485 -0.285131,-0.238314 -0.696693,-0.585427 -1.201172,-1.015625 -1.008956,-0.860394 -2.395492,-2.05318 -3.916015,-3.36914 -2.225525,-1.926116 -3.614154,-3.122566 -4.460938,-3.835938 -0.423391,-0.356686 -0.710825,-0.591451 -0.90039,-0.738281 -0.09478,-0.07341 -0.165575,-0.124999 -0.216797,-0.158203 -0.02561,-0.0166 -0.04657,-0.02862 -0.06445,-0.03711 -0.01788,-0.0085 -0.03039,-0.01563 -0.05273,-0.01367 -0.02393,0.0021 -0.03751,0.01195 -0.05859,0.02539 -0.02108,0.01344 -0.0468,0.03143 -0.07813,0.05664 -0.06266,0.05043 -0.148265,0.127381 -0.263672,0.234375 -0.230815,0.213988 -0.579522,0.551053 -1.082032,1.050781 -1.005019,0.999457 -2.629719,2.646295 -5.18164,5.246094 -0.522783,0.532593 -0.999282,1.013318 -1.34375,1.357422 -0.101681,0.101573 -0.163508,0.162538 -0.240235,0.238281 0.0582,-0.07898 0.100742,-0.135202 0.181641,-0.244141 0.294729,-0.396882 0.740983,-0.995873 1.347656,-1.804687 1.213347,-1.617628 3.067467,-4.080726 5.63086,-7.482422 l 0.902343,-1.199219 5.300782,5.009766 c 1.9474,1.840014 3.290839,3.099934 4.160156,3.902344 0.434658,0.401205 0.750358,0.687674 0.964844,0.875 0.107242,0.09366 0.189083,0.162668 0.248047,0.208984 0.02948,0.02316 0.05315,0.04018 0.07227,0.05273 0.01911,0.01256 0.02902,0.02269 0.05469,0.02539 0.03142,0.0033 0.06458,-0.0132 0.101562,-0.04883 0.03698,-0.03562 0.08402,-0.09463 0.154297,-0.193359 0.140558,-0.197451 0.371933,-0.556858 0.775391,-1.207032 0.806915,-1.300346 2.300944,-3.76286 5.113281,-8.410156 1.639999,-2.710039 3.131978,-5.170923 4.216797,-6.953125 0.52221,-0.857915 0.93659,-1.538011 1.240234,-2.033203 z"
           id="path2" />
      </g>
    </g>
    <g
       id="g10"
       transform="matrix(0.57787792,0,0,0.57787792,-137.3379,104.00133)">
      <path
         style="fill:#ffffff;fill-opacity:1;fill-rule:evenodd;stroke:#ffffff;stroke-width:0.316954;stroke-linejoin:round;stroke-opacity:0"
         d="m 53.518587,52.342113 3.85091,-29.937202 -0.48062,32.33417 -38.750498,-1.405834 z"
         id="path3"
         sodipodi:nodetypes="ccccc" />
      <path
         style="fill:#ffffff;fill-opacity:0;fill-rule:evenodd;stroke:#ffffff;stroke-width:0.329774;stroke-linejoin:round;stroke-opacity:0"
         d="m 11.548145,57.270468 c 0,0 -0.158817,0.175729 0.561309,-0.411301 1.021026,-0.8323 19.699393,-17.168619 19.699393,-17.168619 l 10.9941,10.994103 20.51718,-41.3440368 -3.01951,4.8002448 -18.58159,29.885394 -9.75533,-9.445642 z"
         id="path4"
         sodipodi:nodetypes="csccccccc" />
      <path
         style="fill:#ffffff;fill-opacity:1;fill-rule:evenodd;stroke:#ffffff;stroke-width:0.281875;stroke-linejoin:round;stroke-opacity:0"
         d="M 20.462686,18.321472 17.815565,52.766079 15.394826,14.249682 44.783087,17.1811 Z"
         id="path5"
         sodipodi:nodetypes="ccccc" />
      <path
         style="fill:#ffffff;fill-opacity:1;fill-rule:evenodd;stroke:#ffffff;stroke-width:0.329774;stroke-linejoin:round;stroke-opacity:0"
         d="M 14.986131,59.680758 31.410097,27.599293 43.016367,38.329615 69.951667,7.1240862 42.797387,34.606851 31.191107,24.533487 Z"
         id="path6"
         sodipodi:nodetypes="ccccccc" />
      <path
         style="fill:#ffffff;fill-opacity:0;fill-rule:evenodd;stroke:#ffffff;stroke-width:0.329774;stroke-linejoin:round;stroke-opacity:0"
         d="M 19.420755,50.446748 C 19.749232,50.008777 29.822597,39.825922 29.822597,39.825922 l 11.27778,9.744884 13.02968,-24.635945"
         id="path7" />
      <g
         id="g9"
         transform="translate(-14.359732,-41.130584)">
        <path
           style="color:#000000;fill:#ffffff;fill-rule:evenodd;stroke-linejoin:round;-inkscape-stroke:none"
           d="m 52.456823,81.668868 c -4.450987,-3.852178 -5.55609,-4.783173 -5.666264,-4.77354 -0.136722,0.01195 -1.53537,1.402861 -6.639155,6.602401 -1.045717,1.06534 -1.901305,1.920022 -1.901305,1.899292 0,-0.03161 2.29014,-3.084816 7.416946,-9.888236 l 0.930103,-1.234273 5.333255,5.039157 c 3.89472,3.679951 5.37163,5.043192 5.47555,5.05412 0.13421,0.01411 0.755295,-0.49957 6.379965,-9.794156 3.28003,-5.420133 6.475747,-9.913521 6.487677,-9.90159 0.0218,0.02182 -12.178652,21.673482 -12.249452,21.744367 -0.0209,0.02088 -2.52615,-2.115514 -5.56732,-4.747542 z"
           id="path8"
           sodipodi:nodetypes="ssssscsssscs" />
        <path
           style="color:#000000;fill:url(#radialGradient10);fill-opacity:0;fill-rule:evenodd;stroke-linejoin:round;-inkscape-stroke:none"
           d="m 69.474609,64.662109 c -1.28e-4,8.9e-5 -0.0076,0.0056 -0.0078,0.0059 -4.2e-4,4.47e-4 -0.0027,0.0043 -0.0039,0.0059 -0.0023,0.0031 -0.0048,0.0054 -0.0078,0.0098 -0.0059,0.0088 -0.01471,0.02238 -0.02539,0.03906 -0.02137,0.03337 -0.05115,0.08315 -0.0918,0.148438 -0.08129,0.130584 -0.200775,0.323305 -0.353516,0.572265 -0.305482,0.497921 -0.746626,1.21823 -1.289063,2.109375 -1.084873,1.782292 -2.578721,4.24499 -4.21875,6.955078 -2.812327,4.647281 -4.304974,7.110715 -5.111328,8.410157 -0.403176,0.649721 -0.633444,1.007258 -0.771484,1.201172 -0.06902,0.09696 -0.116824,0.153068 -0.146484,0.18164 -0.02966,0.02857 -0.03498,0.02757 -0.03711,0.02734 0.01268,0.0013 -0.0017,-0.0013 -0.01758,-0.01172 -0.01584,-0.01041 -0.03795,-0.02648 -0.06641,-0.04883 C 57.269284,84.222984 57.186786,84.15383 57.0801,84.060653 56.866706,83.874193 56.551586,83.588465 56.117187,83.1875 55.248391,82.385571 53.9063,81.12509 51.958984,79.285156 L 46.625,74.246094 a 0.04024923,0.04024923 0 0 0 -0.06055,0.0039 l -0.929687,1.234375 c -2.563409,3.401717 -4.417437,5.866646 -5.63086,7.484375 -0.606711,0.808864 -1.052772,1.405644 -1.347656,1.802734 -0.147442,0.198546 -0.257294,0.34726 -0.330078,0.447266 -0.03639,0.05 -0.06373,0.08712 -0.08203,0.113281 -0.0092,0.01308 -0.01652,0.0236 -0.02148,0.03125 -0.0025,0.0038 -0.004,0.0065 -0.0059,0.0098 -9.17e-4,0.0016 -8.36e-4,0.0034 -0.002,0.0059 -5.59e-4,0.0012 -0.0019,0.0056 -0.002,0.0059 -7e-5,2.15e-4 -0.0039,0.01159 -0.0039,0.01172 0,8.1e-5 0.0039,0.01752 0.0039,0.01758 2.6e-5,5.5e-5 0.01753,0.0195 0.01758,0.01953 5.2e-5,2.7e-5 0.01945,0.0039 0.01953,0.0039 7.8e-5,10e-7 0.0097,-0.0019 0.0098,-0.002 2.07e-4,-5.1e-5 0.0095,-0.0018 0.0098,-0.002 3.11e-4,-1.56e-4 0.0027,-0.0032 0.0039,-0.0039 0.0048,-0.003 0.0079,-0.0046 0.01172,-0.0078 0.0077,-0.0064 0.01827,-0.01537 0.03125,-0.02734 0.02596,-0.02395 0.06293,-0.06037 0.111328,-0.107422 0.0968,-0.0941 0.23778,-0.232102 0.410157,-0.404297 0.344754,-0.344389 0.818864,-0.824676 1.341796,-1.357421 2.55186,-2.599736 4.177212,-4.247225 5.181641,-5.246094 0.502215,-0.499435 0.850701,-0.836174 1.080078,-1.048828 0.114689,-0.106327 0.199831,-0.182234 0.259766,-0.230469 0.02997,-0.02412 0.05339,-0.03999 0.07031,-0.05078 0.01692,-0.01079 0.03028,-0.01427 0.02344,-0.01367 -0.0086,7.5e-4 -8.64e-4,-1.13e-4 0.01172,0.0059 0.01258,0.006 0.03084,0.01579 0.05469,0.03125 0.04769,0.03091 0.117077,0.0816 0.210938,0.154297 0.187721,0.145402 0.475409,0.381901 0.898437,0.738281 0.846057,0.712761 2.233526,1.907926 4.458984,3.833985 1.520645,1.316065 2.908786,2.508553 3.917969,3.36914 0.504592,0.430294 0.913702,0.776988 1.199219,1.015625 0.142758,0.119319 0.255213,0.211576 0.332031,0.273438 0.03841,0.03093 0.06689,0.0546 0.08789,0.07031 0.0105,0.0079 0.01839,0.01307 0.02539,0.01758 0.0035,0.0023 0.0071,0.0056 0.01172,0.0078 0.0023,0.0011 0.01125,0.0019 0.01172,0.002 2.33e-4,5e-5 0.01156,0.002 0.01172,0.002 1.57e-4,-1.6e-5 0.02531,-0.01164 0.02539,-0.01172 2.77e-4,-2.76e-4 0.0047,-0.0061 0.0059,-0.0078 0.0011,-0.0017 0.0028,-0.004 0.0039,-0.0059 0.0023,-0.0037 0.0044,-0.0078 0.0078,-0.01367 0.0068,-0.01183 0.01544,-0.02918 0.02734,-0.05078 0.0238,-0.0432 0.05971,-0.106289 0.103516,-0.1875 0.08761,-0.162421 0.213475,-0.398117 0.373047,-0.697265 0.319142,-0.598296 0.770224,-1.449729 1.310547,-2.46875 1.080646,-2.038041 2.514224,-4.747622 3.945312,-7.457031 1.431089,-2.70941 2.860616,-5.417311 3.929688,-7.449219 0.534535,-1.015954 0.978601,-1.863334 1.289062,-2.457031 0.155231,-0.296849 0.276823,-0.529709 0.359375,-0.689454 0.04128,-0.07987 0.07266,-0.141799 0.09375,-0.183593 0.01055,-0.0209 0.01806,-0.03765 0.02344,-0.04883 10e-4,-0.0022 0.0011,-0.004 0.002,-0.0059 0.0014,-0.0029 0.0049,-0.0055 0.0059,-0.0078 8.04e-4,-0.0018 0.0011,-0.0034 0.002,-0.0059 8.79e-4,-0.0025 -0.0097,-0.04288 -0.0098,-0.04297 -4.7e-5,-4.7e-5 -0.05065,-0.004 -0.05078,-0.0039 z M 69.003906,65.5625 c -0.01097,0.02099 -0.01406,0.02911 -0.02539,0.05078 -0.310401,0.593581 -0.756497,1.441109 -1.291016,2.457031 -1.069038,2.031846 -2.496661,4.737885 -3.927734,7.447266 -1.431074,2.709381 -2.8647,5.421006 -3.945313,7.458984 -0.540306,1.01899 -0.993418,1.870568 -1.3125,2.46875 -0.159541,0.299092 -0.285548,0.535061 -0.373047,0.697266 -0.04375,0.0811 -0.07798,0.142746 -0.101562,0.185547 -0.0076,0.01371 -0.01222,0.0217 -0.01758,0.03125 -0.0194,-0.01465 -0.04447,-0.03578 -0.08008,-0.06445 -0.07607,-0.06126 -0.187512,-0.152327 -0.330078,-0.271485 -0.285131,-0.238314 -0.696693,-0.585427 -1.201172,-1.015625 -1.008956,-0.860394 -2.395492,-2.05318 -3.916015,-3.36914 -2.225525,-1.926116 -3.614154,-3.122566 -4.460938,-3.835938 -0.423391,-0.356686 -0.710825,-0.591451 -0.90039,-0.738281 -0.09478,-0.07341 -0.165575,-0.124999 -0.216797,-0.158203 -0.02561,-0.0166 -0.04657,-0.02862 -0.06445,-0.03711 -0.01788,-0.0085 -0.03039,-0.01563 -0.05273,-0.01367 -0.02393,0.0021 -0.03751,0.01195 -0.05859,0.02539 -0.02108,0.01344 -0.0468,0.03143 -0.07813,0.05664 -0.06266,0.05043 -0.148265,0.127381 -0.263672,0.234375 -0.230815,0.213988 -0.579522,0.551053 -1.082032,1.050781 -1.005019,0.999457 -2.629719,2.646295 -5.18164,5.246094 -0.522783,0.532593 -0.999282,1.013318 -1.34375,1.357422 -0.101681,0.101573 -0.163508,0.162538 -0.240235,0.238281 0.0582,-0.07898 0.100742,-0.135202 0.181641,-0.244141 0.294729,-0.396882 0.740983,-0.995873 1.347656,-1.804687 1.213347,-1.617628 3.067467,-4.080726 5.63086,-7.482422 l 0.902343,-1.199219 5.300782,5.009766 c 1.9474,1.840014 3.290839,3.099934 4.160156,3.902344 0.434658,0.401205 0.750358,0.687674 0.964844,0.875 0.107242,0.09366 0.189083,0.162668 0.248047,0.208984 0.02948,0.02316 0.05315,0.04018 0.07227,0.05273 0.01911,0.01256 0.02902,0.02269 0.05469,0.02539 0.03142,0.0033 0.06458,-0.0132 0.101562,-0.04883 0.03698,-0.03562 0.08402,-0.09463 0.154297,-0.193359 0.140558,-0.197451 0.371933,-0.556858 0.775391,-1.207032 0.806915,-1.300346 2.300944,-3.76286 5.113281,-8.410156 1.639999,-2.710039 3.131978,-5.170923 4.216797,-6.953125 0.52221,-0.857915 0.93659,-1.538011 1.240234,-2.033203 z"
           id="path9" />
      </g>
    </g>
    <g
       id="g19"
       transform="matrix(0.3727316,0,0,0.3727316,-100.04828,115.50337)">
      <path
         style="fill:#ffffff;fill-opacity:1;fill-rule:evenodd;stroke:#ffffff;stroke-width:0.316954;stroke-linejoin:round;stroke-opacity:0"
         d="m 53.518587,52.342113 3.85091,-29.937202 -0.48062,32.33417 -38.750498,-1.405834 z"
         id="path10"
         sodipodi:nodetypes="ccccc" />
      <path
         style="fill:#ffffff;fill-opacity:0;fill-rule:evenodd;stroke:#ffffff;stroke-width:0.329774;stroke-linejoin:round;stroke-opacity:0"
         d="m 11.548145,57.270468 c 0,0 -0.158817,0.175729 0.561309,-0.411301 1.021026,-0.8323 19.699393,-17.168619 19.699393,-17.168619 l 10.9941,10.994103 20.51718,-41.3440368 -3.01951,4.8002448 -18.58159,29.885394 -9.75533,-9.445642 z"
         id="path11"
         sodipodi:nodetypes="csccccccc" />
      <path
         style="fill:#ffffff;fill-opacity:1;fill-rule:evenodd;stroke:#ffffff;stroke-width:0.281875;stroke-linejoin:round;stroke-opacity:0"
         d="M 20.462686,18.321472 17.815565,52.766079 15.394826,14.249682 44.783087,17.1811 Z"
         id="path12"
         sodipodi:nodetypes="ccccc" />
      <path
         style="fill:#ffffff;fill-opacity:1;fill-rule:evenodd;stroke:#ffffff;stroke-width:0.329774;stroke-linejoin:round;stroke-opacity:0"
         d="M 14.986131,59.680758 31.410097,27.599293 43.016367,38.329615 69.951667,7.1240862 42.797387,34.606851 31.191107,24.533487 Z"
         id="path13"
         sodipodi:nodetypes="ccccccc" />
      <path
         style="fill:#ffffff;fill-opacity:0;fill-rule:evenodd;stroke:#ffffff;stroke-width:0.329774;stroke-linejoin:round;stroke-opacity:0"
         d="M 19.420755,50.446748 C 19.749232,50.008777 29.822597,39.825922 29.822597,39.825922 l 11.27778,9.744884 13.02968,-24.635945"
         id="path16" />
      <g
         id="g18"
         transform="translate(-14.359732,-41.130584)">
        <path
           style="color:#000000;fill:#ffffff;fill-rule:evenodd;stroke-linejoin:round;-inkscape-stroke:none"
           d="m 52.456823,81.668868 c -4.450987,-3.852178 -5.55609,-4.783173 -5.666264,-4.77354 -0.136722,0.01195 -1.53537,1.402861 -6.639155,6.602401 -1.045717,1.06534 -1.901305,1.920022 -1.901305,1.899292 0,-0.03161 2.29014,-3.084816 7.416946,-9.888236 l 0.930103,-1.234273 5.333255,5.039157 c 3.89472,3.679951 5.37163,5.043192 5.47555,5.05412 0.13421,0.01411 0.755295,-0.49957 6.379965,-9.794156 3.28003,-5.420133 6.475747,-9.913521 6.487677,-9.90159 0.0218,0.02182 -12.178652,21.673482 -12.249452,21.744367 -0.0209,0.02088 -2.52615,-2.115514 -5.56732,-4.747542 z"
           id="path17"
           sodipodi:nodetypes="ssssscsssscs" />
        <path
           style="color:#000000;fill:url(#radialGradient19);fill-opacity:0;fill-rule:evenodd;stroke-linejoin:round;-inkscape-stroke:none"
           d="m 69.474609,64.662109 c -1.28e-4,8.9e-5 -0.0076,0.0056 -0.0078,0.0059 -4.2e-4,4.47e-4 -0.0027,0.0043 -0.0039,0.0059 -0.0023,0.0031 -0.0048,0.0054 -0.0078,0.0098 -0.0059,0.0088 -0.01471,0.02238 -0.02539,0.03906 -0.02137,0.03337 -0.05115,0.08315 -0.0918,0.148438 -0.08129,0.130584 -0.200775,0.323305 -0.353516,0.572265 -0.305482,0.497921 -0.746626,1.21823 -1.289063,2.109375 -1.084873,1.782292 -2.578721,4.24499 -4.21875,6.955078 -2.812327,4.647281 -4.304974,7.110715 -5.111328,8.410157 -0.403176,0.649721 -0.633444,1.007258 -0.771484,1.201172 -0.06902,0.09696 -0.116824,0.153068 -0.146484,0.18164 -0.02966,0.02857 -0.03498,0.02757 -0.03711,0.02734 0.01268,0.0013 -0.0017,-0.0013 -0.01758,-0.01172 -0.01584,-0.01041 -0.03795,-0.02648 -0.06641,-0.04883 C 57.269284,84.222984 57.186786,84.15383 57.0801,84.060653 56.866706,83.874193 56.551586,83.588465 56.117187,83.1875 55.248391,82.385571 53.9063,81.12509 51.958984,79.285156 L 46.625,74.246094 a 0.04024923,0.04024923 0 0 0 -0.06055,0.0039 l -0.929687,1.234375 c -2.563409,3.401717 -4.417437,5.866646 -5.63086,7.484375 -0.606711,0.808864 -1.052772,1.405644 -1.347656,1.802734 -0.147442,0.198546 -0.257294,0.34726 -0.330078,0.447266 -0.03639,0.05 -0.06373,0.08712 -0.08203,0.113281 -0.0092,0.01308 -0.01652,0.0236 -0.02148,0.03125 -0.0025,0.0038 -0.004,0.0065 -0.0059,0.0098 -9.17e-4,0.0016 -8.36e-4,0.0034 -0.002,0.0059 -5.59e-4,0.0012 -0.0019,0.0056 -0.002,0.0059 -7e-5,2.15e-4 -0.0039,0.01159 -0.0039,0.01172 0,8.1e-5 0.0039,0.01752 0.0039,0.01758 2.6e-5,5.5e-5 0.01753,0.0195 0.01758,0.01953 5.2e-5,2.7e-5 0.01945,0.0039 0.01953,0.0039 7.8e-5,10e-7 0.0097,-0.0019 0.0098,-0.002 2.07e-4,-5.1e-5 0.0095,-0.0018 0.0098,-0.002 3.11e-4,-1.56e-4 0.0027,-0.0032 0.0039,-0.0039 0.0048,-0.003 0.0079,-0.0046 0.01172,-0.0078 0.0077,-0.0064 0.01827,-0.01537 0.03125,-0.02734 0.02596,-0.02395 0.06293,-0.06037 0.111328,-0.107422 0.0968,-0.0941 0.23778,-0.232102 0.410157,-0.404297 0.344754,-0.344389 0.818864,-0.824676 1.341796,-1.357421 2.55186,-2.599736 4.177212,-4.247225 5.181641,-5.246094 0.502215,-0.499435 0.850701,-0.836174 1.080078,-1.048828 0.114689,-0.106327 0.199831,-0.182234 0.259766,-0.230469 0.02997,-0.02412 0.05339,-0.03999 0.07031,-0.05078 0.01692,-0.01079 0.03028,-0.01427 0.02344,-0.01367 -0.0086,7.5e-4 -8.64e-4,-1.13e-4 0.01172,0.0059 0.01258,0.006 0.03084,0.01579 0.05469,0.03125 0.04769,0.03091 0.117077,0.0816 0.210938,0.154297 0.187721,0.145402 0.475409,0.381901 0.898437,0.738281 0.846057,0.712761 2.233526,1.907926 4.458984,3.833985 1.520645,1.316065 2.908786,2.508553 3.917969,3.36914 0.504592,0.430294 0.913702,0.776988 1.199219,1.015625 0.142758,0.119319 0.255213,0.211576 0.332031,0.273438 0.03841,0.03093 0.06689,0.0546 0.08789,0.07031 0.0105,0.0079 0.01839,0.01307 0.02539,0.01758 0.0035,0.0023 0.0071,0.0056 0.01172,0.0078 0.0023,0.0011 0.01125,0.0019 0.01172,0.002 2.33e-4,5e-5 0.01156,0.002 0.01172,0.002 1.57e-4,-1.6e-5 0.02531,-0.01164 0.02539,-0.01172 2.77e-4,-2.76e-4 0.0047,-0.0061 0.0059,-0.0078 0.0011,-0.0017 0.0028,-0.004 0.0039,-0.0059 0.0023,-0.0037 0.0044,-0.0078 0.0078,-0.01367 0.0068,-0.01183 0.01544,-0.02918 0.02734,-0.05078 0.0238,-0.0432 0.05971,-0.106289 0.103516,-0.1875 0.08761,-0.162421 0.213475,-0.398117 0.373047,-0.697265 0.319142,-0.598296 0.770224,-1.449729 1.310547,-2.46875 1.080646,-2.038041 2.514224,-4.747622 3.945312,-7.457031 1.431089,-2.70941 2.860616,-5.417311 3.929688,-7.449219 0.534535,-1.015954 0.978601,-1.863334 1.289062,-2.457031 0.155231,-0.296849 0.276823,-0.529709 0.359375,-0.689454 0.04128,-0.07987 0.07266,-0.141799 0.09375,-0.183593 0.01055,-0.0209 0.01806,-0.03765 0.02344,-0.04883 10e-4,-0.0022 0.0011,-0.004 0.002,-0.0059 0.0014,-0.0029 0.0049,-0.0055 0.0059,-0.0078 8.04e-4,-0.0018 0.0011,-0.0034 0.002,-0.0059 8.79e-4,-0.0025 -0.0097,-0.04288 -0.0098,-0.04297 -4.7e-5,-4.7e-5 -0.05065,-0.004 -0.05078,-0.0039 z M 69.003906,65.5625 c -0.01097,0.02099 -0.01406,0.02911 -0.02539,0.05078 -0.310401,0.593581 -0.756497,1.441109 -1.291016,2.457031 -1.069038,2.031846 -2.496661,4.737885 -3.927734,7.447266 -1.431074,2.709381 -2.8647,5.421006 -3.945313,7.458984 -0.540306,1.01899 -0.993418,1.870568 -1.3125,2.46875 -0.159541,0.299092 -0.285548,0.535061 -0.373047,0.697266 -0.04375,0.0811 -0.07798,0.142746 -0.101562,0.185547 -0.0076,0.01371 -0.01222,0.0217 -0.01758,0.03125 -0.0194,-0.01465 -0.04447,-0.03578 -0.08008,-0.06445 -0.07607,-0.06126 -0.187512,-0.152327 -0.330078,-0.271485 -0.285131,-0.238314 -0.696693,-0.585427 -1.201172,-1.015625 -1.008956,-0.860394 -2.395492,-2.05318 -3.916015,-3.36914 -2.225525,-1.926116 -3.614154,-3.122566 -4.460938,-3.835938 -0.423391,-0.356686 -0.710825,-0.591451 -0.90039,-0.738281 -0.09478,-0.07341 -0.165575,-0.124999 -0.216797,-0.158203 -0.02561,-0.0166 -0.04657,-0.02862 -0.06445,-0.03711 -0.01788,-0.0085 -0.03039,-0.01563 -0.05273,-0.01367 -0.02393,0.0021 -0.03751,0.01195 -0.05859,0.02539 -0.02108,0.01344 -0.0468,0.03143 -0.07813,0.05664 -0.06266,0.05043 -0.148265,0.127381 -0.263672,0.234375 -0.230815,0.213988 -0.579522,0.551053 -1.082032,1.050781 -1.005019,0.999457 -2.629719,2.646295 -5.18164,5.246094 -0.522783,0.532593 -0.999282,1.013318 -1.34375,1.357422 -0.101681,0.101573 -0.163508,0.162538 -0.240235,0.238281 0.0582,-0.07898 0.100742,-0.135202 0.181641,-0.244141 0.294729,-0.396882 0.740983,-0.995873 1.347656,-1.804687 1.213347,-1.617628 3.067467,-4.080726 5.63086,-7.482422 l 0.902343,-1.199219 5.300782,5.009766 c 1.9474,1.840014 3.290839,3.099934 4.160156,3.902344 0.434658,0.401205 0.750358,0.687674 0.964844,0.875 0.107242,0.09366 0.189083,0.162668 0.248047,0.208984 0.02948,0.02316 0.05315,0.04018 0.07227,0.05273 0.01911,0.01256 0.02902,0.02269 0.05469,0.02539 0.03142,0.0033 0.06458,-0.0132 0.101562,-0.04883 0.03698,-0.03562 0.08402,-0.09463 0.154297,-0.193359 0.140558,-0.197451 0.371933,-0.556858 0.775391,-1.207032 0.806915,-1.300346 2.300944,-3.76286 5.113281,-8.410156 1.639999,-2.710039 3.131978,-5.170923 4.216797,-6.953125 0.52221,-0.857915 0.93659,-1.538011 1.240234,-2.033203 z"
           id="path18" />
      </g>
    </g>
    <g
       id="g30"
       transform="matrix(0.21443582,0,0,0.21443582,-75.775069,123.63228)">
      <path
         style="fill:#ffffff;fill-opacity:1;fill-rule:evenodd;stroke:#ffffff;stroke-width:0.316954;stroke-linejoin:round;stroke-opacity:0"
         d="m 53.518587,52.342113 3.85091,-29.937202 -0.48062,32.33417 -38.750498,-1.405834 z"
         id="path19"
         sodipodi:nodetypes="ccccc" />
      <path
         style="fill:#ffffff;fill-opacity:0;fill-rule:evenodd;stroke:#ffffff;stroke-width:0.329774;stroke-linejoin:round;stroke-opacity:0"
         d="m 11.548145,57.270468 c 0,0 -0.158817,0.175729 0.561309,-0.411301 1.021026,-0.8323 19.699393,-17.168619 19.699393,-17.168619 l 10.9941,10.994103 20.51718,-41.3440368 -3.01951,4.8002448 -18.58159,29.885394 -9.75533,-9.445642 z"
         id="path20"
         sodipodi:nodetypes="csccccccc" />
      <path
         style="fill:#ffffff;fill-opacity:1;fill-rule:evenodd;stroke:#ffffff;stroke-width:0.281875;stroke-linejoin:round;stroke-opacity:0"
         d="M 20.462686,18.321472 17.815565,52.766079 15.394826,14.249682 44.783087,17.1811 Z"
         id="path21"
         sodipodi:nodetypes="ccccc" />
      <path
         style="fill:#ffffff;fill-opacity:1;fill-rule:evenodd;stroke:#ffffff;stroke-width:0.329774;stroke-linejoin:round;stroke-opacity:0"
         d="M 14.986131,59.680758 31.410097,27.599293 43.016367,38.329615 69.951667,7.1240862 42.797387,34.606851 31.191107,24.533487 Z"
         id="path22"
         sodipodi:nodetypes="ccccccc" />
      <path
         style="fill:#ffffff;fill-opacity:0;fill-rule:evenodd;stroke:#ffffff;stroke-width:0.329774;stroke-linejoin:round;stroke-opacity:0"
         d="M 19.420755,50.446748 C 19.749232,50.008777 29.822597,39.825922 29.822597,39.825922 l 11.27778,9.744884 13.02968,-24.635945"
         id="path25" />
      <g
         id="g29"
         transform="translate(-14.359732,-41.130584)">
        <path
           style="color:#000000;fill:#ffffff;fill-rule:evenodd;stroke-linejoin:round;-inkscape-stroke:none"
           d="m 52.456823,81.668868 c -4.450987,-3.852178 -5.55609,-4.783173 -5.666264,-4.77354 -0.136722,0.01195 -1.53537,1.402861 -6.639155,6.602401 -1.045717,1.06534 -1.901305,1.920022 -1.901305,1.899292 0,-0.03161 2.29014,-3.084816 7.416946,-9.888236 l 0.930103,-1.234273 5.333255,5.039157 c 3.89472,3.679951 5.37163,5.043192 5.47555,5.05412 0.13421,0.01411 0.755295,-0.49957 6.379965,-9.794156 3.28003,-5.420133 6.475747,-9.913521 6.487677,-9.90159 0.0218,0.02182 -12.178652,21.673482 -12.249452,21.744367 -0.0209,0.02088 -2.52615,-2.115514 -5.56732,-4.747542 z"
           id="path26"
           sodipodi:nodetypes="ssssscsssscs" />
        <path
           style="color:#000000;fill:url(#radialGradient30);fill-opacity:0;fill-rule:evenodd;stroke-linejoin:round;-inkscape-stroke:none"
           d="m 69.474609,64.662109 c -1.28e-4,8.9e-5 -0.0076,0.0056 -0.0078,0.0059 -4.2e-4,4.47e-4 -0.0027,0.0043 -0.0039,0.0059 -0.0023,0.0031 -0.0048,0.0054 -0.0078,0.0098 -0.0059,0.0088 -0.01471,0.02238 -0.02539,0.03906 -0.02137,0.03337 -0.05115,0.08315 -0.0918,0.148438 -0.08129,0.130584 -0.200775,0.323305 -0.353516,0.572265 -0.305482,0.497921 -0.746626,1.21823 -1.289063,2.109375 -1.084873,1.782292 -2.578721,4.24499 -4.21875,6.955078 -2.812327,4.647281 -4.304974,7.110715 -5.111328,8.410157 -0.403176,0.649721 -0.633444,1.007258 -0.771484,1.201172 -0.06902,0.09696 -0.116824,0.153068 -0.146484,0.18164 -0.02966,0.02857 -0.03498,0.02757 -0.03711,0.02734 0.01268,0.0013 -0.0017,-0.0013 -0.01758,-0.01172 -0.01584,-0.01041 -0.03795,-0.02648 -0.06641,-0.04883 C 57.269284,84.222984 57.186786,84.15383 57.0801,84.060653 56.866706,83.874193 56.551586,83.588465 56.117187,83.1875 55.248391,82.385571 53.9063,81.12509 51.958984,79.285156 L 46.625,74.246094 a 0.04024923,0.04024923 0 0 0 -0.06055,0.0039 l -0.929687,1.234375 c -2.563409,3.401717 -4.417437,5.866646 -5.63086,7.484375 -0.606711,0.808864 -1.052772,1.405644 -1.347656,1.802734 -0.147442,0.198546 -0.257294,0.34726 -0.330078,0.447266 -0.03639,0.05 -0.06373,0.08712 -0.08203,0.113281 -0.0092,0.01308 -0.01652,0.0236 -0.02148,0.03125 -0.0025,0.0038 -0.004,0.0065 -0.0059,0.0098 -9.17e-4,0.0016 -8.36e-4,0.0034 -0.002,0.0059 -5.59e-4,0.0012 -0.0019,0.0056 -0.002,0.0059 -7e-5,2.15e-4 -0.0039,0.01159 -0.0039,0.01172 0,8.1e-5 0.0039,0.01752 0.0039,0.01758 2.6e-5,5.5e-5 0.01753,0.0195 0.01758,0.01953 5.2e-5,2.7e-5 0.01945,0.0039 0.01953,0.0039 7.8e-5,10e-7 0.0097,-0.0019 0.0098,-0.002 2.07e-4,-5.1e-5 0.0095,-0.0018 0.0098,-0.002 3.11e-4,-1.56e-4 0.0027,-0.0032 0.0039,-0.0039 0.0048,-0.003 0.0079,-0.0046 0.01172,-0.0078 0.0077,-0.0064 0.01827,-0.01537 0.03125,-0.02734 0.02596,-0.02395 0.06293,-0.06037 0.111328,-0.107422 0.0968,-0.0941 0.23778,-0.232102 0.410157,-0.404297 0.344754,-0.344389 0.818864,-0.824676 1.341796,-1.357421 2.55186,-2.599736 4.177212,-4.247225 5.181641,-5.246094 0.502215,-0.499435 0.850701,-0.836174 1.080078,-1.048828 0.114689,-0.106327 0.199831,-0.182234 0.259766,-0.230469 0.02997,-0.02412 0.05339,-0.03999 0.07031,-0.05078 0.01692,-0.01079 0.03028,-0.01427 0.02344,-0.01367 -0.0086,7.5e-4 -8.64e-4,-1.13e-4 0.01172,0.0059 0.01258,0.006 0.03084,0.01579 0.05469,0.03125 0.04769,0.03091 0.117077,0.0816 0.210938,0.154297 0.187721,0.145402 0.475409,0.381901 0.898437,0.738281 0.846057,0.712761 2.233526,1.907926 4.458984,3.833985 1.520645,1.316065 2.908786,2.508553 3.917969,3.36914 0.504592,0.430294 0.913702,0.776988 1.199219,1.015625 0.142758,0.119319 0.255213,0.211576 0.332031,0.273438 0.03841,0.03093 0.06689,0.0546 0.08789,0.07031 0.0105,0.0079 0.01839,0.01307 0.02539,0.01758 0.0035,0.0023 0.0071,0.0056 0.01172,0.0078 0.0023,0.0011 0.01125,0.0019 0.01172,0.002 2.33e-4,5e-5 0.01156,0.002 0.01172,0.002 1.57e-4,-1.6e-5 0.02531,-0.01164 0.02539,-0.01172 2.77e-4,-2.76e-4 0.0047,-0.0061 0.0059,-0.0078 0.0011,-0.0017 0.0028,-0.004 0.0039,-0.0059 0.0023,-0.0037 0.0044,-0.0078 0.0078,-0.01367 0.0068,-0.01183 0.01544,-0.02918 0.02734,-0.05078 0.0238,-0.0432 0.05971,-0.106289 0.103516,-0.1875 0.08761,-0.162421 0.213475,-0.398117 0.373047,-0.697265 0.319142,-0.598296 0.770224,-1.449729 1.310547,-2.46875 1.080646,-2.038041 2.514224,-4.747622 3.945312,-7.457031 1.431089,-2.70941 2.860616,-5.417311 3.929688,-7.449219 0.534535,-1.015954 0.978601,-1.863334 1.289062,-2.457031 0.155231,-0.296849 0.276823,-0.529709 0.359375,-0.689454 0.04128,-0.07987 0.07266,-0.141799 0.09375,-0.183593 0.01055,-0.0209 0.01806,-0.03765 0.02344,-0.04883 10e-4,-0.0022 0.0011,-0.004 0.002,-0.0059 0.0014,-0.0029 0.0049,-0.0055 0.0059,-0.0078 8.04e-4,-0.0018 0.0011,-0.0034 0.002,-0.0059 8.79e-4,-0.0025 -0.0097,-0.04288 -0.0098,-0.04297 -4.7e-5,-4.7e-5 -0.05065,-0.004 -0.05078,-0.0039 z M 69.003906,65.5625 c -0.01097,0.02099 -0.01406,0.02911 -0.02539,0.05078 -0.310401,0.593581 -0.756497,1.441109 -1.291016,2.457031 -1.069038,2.031846 -2.496661,4.737885 -3.927734,7.447266 -1.431074,2.709381 -2.8647,5.421006 -3.945313,7.458984 -0.540306,1.01899 -0.993418,1.870568 -1.3125,2.46875 -0.159541,0.299092 -0.285548,0.535061 -0.373047,0.697266 -0.04375,0.0811 -0.07798,0.142746 -0.101562,0.185547 -0.0076,0.01371 -0.01222,0.0217 -0.01758,0.03125 -0.0194,-0.01465 -0.04447,-0.03578 -0.08008,-0.06445 -0.07607,-0.06126 -0.187512,-0.152327 -0.330078,-0.271485 -0.285131,-0.238314 -0.696693,-0.585427 -1.201172,-1.015625 -1.008956,-0.860394 -2.395492,-2.05318 -3.916015,-3.36914 -2.225525,-1.926116 -3.614154,-3.122566 -4.460938,-3.835938 -0.423391,-0.356686 -0.710825,-0.591451 -0.90039,-0.738281 -0.09478,-0.07341 -0.165575,-0.124999 -0.216797,-0.158203 -0.02561,-0.0166 -0.04657,-0.02862 -0.06445,-0.03711 -0.01788,-0.0085 -0.03039,-0.01563 -0.05273,-0.01367 -0.02393,0.0021 -0.03751,0.01195 -0.05859,0.02539 -0.02108,0.01344 -0.0468,0.03143 -0.07813,0.05664 -0.06266,0.05043 -0.148265,0.127381 -0.263672,0.234375 -0.230815,0.213988 -0.579522,0.551053 -1.082032,1.050781 -1.005019,0.999457 -2.629719,2.646295 -5.18164,5.246094 -0.522783,0.532593 -0.999282,1.013318 -1.34375,1.357422 -0.101681,0.101573 -0.163508,0.162538 -0.240235,0.238281 0.0582,-0.07898 0.100742,-0.135202 0.181641,-0.244141 0.294729,-0.396882 0.740983,-0.995873 1.347656,-1.804687 1.213347,-1.617628 3.067467,-4.080726 5.63086,-7.482422 l 0.902343,-1.199219 5.300782,5.009766 c 1.9474,1.840014 3.290839,3.099934 4.160156,3.902344 0.434658,0.401205 0.750358,0.687674 0.964844,0.875 0.107242,0.09366 0.189083,0.162668 0.248047,0.208984 0.02948,0.02316 0.05315,0.04018 0.07227,0.05273 0.01911,0.01256 0.02902,0.02269 0.05469,0.02539 0.03142,0.0033 0.06458,-0.0132 0.101562,-0.04883 0.03698,-0.03562 0.08402,-0.09463 0.154297,-0.193359 0.140558,-0.197451 0.371933,-0.556858 0.775391,-1.207032 0.806915,-1.300346 2.300944,-3.76286 5.113281,-8.410156 1.639999,-2.710039 3.131978,-5.170923 4.216797,-6.953125 0.52221,-0.857915 0.93659,-1.538011 1.240234,-2.033203 z"
           id="path29" />
      </g>
    </g>
    <g
       id="g38"
       transform="matrix(1.5188584,0,0,1.5188584,-22.792213,-11.011582)">
      <path
         style="fill:#ffffff;fill-opacity:1;fill-rule:evenodd;stroke:#ffffff;stroke-width:0.316954;stroke-linejoin:round;stroke-opacity:0"
         d="m 53.518587,52.342113 3.85091,-29.937202 -0.48062,32.33417 -38.750498,-1.405834 z"
         id="path31"
         sodipodi:nodetypes="ccccc" />
      <path
         style="fill:#ffffff;fill-opacity:0;fill-rule:evenodd;stroke:#ffffff;stroke-width:0.329774;stroke-linejoin:round;stroke-opacity:0"
         d="m 11.548145,57.270468 c 0,0 -0.158817,0.175729 0.561309,-0.411301 1.021026,-0.8323 19.699393,-17.168619 19.699393,-17.168619 l 10.9941,10.994103 20.51718,-41.3440368 -3.01951,4.8002448 -18.58159,29.885394 -9.75533,-9.445642 z"
         id="path32"
         sodipodi:nodetypes="csccccccc" />
      <path
         style="fill:#ffffff;fill-opacity:1;fill-rule:evenodd;stroke:#ffffff;stroke-width:0.281875;stroke-linejoin:round;stroke-opacity:0"
         d="M 20.462686,18.321472 17.815565,52.766079 15.394826,14.249682 44.783087,17.1811 Z"
         id="path33"
         sodipodi:nodetypes="ccccc" />
      <path
         style="fill:#ffffff;fill-opacity:1;fill-rule:evenodd;stroke:#ffffff;stroke-width:0.329774;stroke-linejoin:round;stroke-opacity:0"
         d="M 14.986131,59.680758 31.410097,27.599293 43.016367,38.329615 69.951667,7.1240862 42.797387,34.606851 31.191107,24.533487 Z"
         id="path34"
         sodipodi:nodetypes="ccccccc" />
      <path
         style="fill:#ffffff;fill-opacity:0;fill-rule:evenodd;stroke:#ffffff;stroke-width:0.329774;stroke-linejoin:round;stroke-opacity:0"
         d="M 19.420755,50.446748 C 19.749232,50.008777 29.822597,39.825922 29.822597,39.825922 l 11.27778,9.744884 13.02968,-24.635945"
         id="path35" />
      <g
         id="g37"
         transform="translate(-14.359732,-41.130584)">
        <path
           style="color:#000000;fill:#ffffff;fill-rule:evenodd;stroke-linejoin:round;-inkscape-stroke:none"
           d="m 52.456823,81.668868 c -4.450987,-3.852178 -5.55609,-4.783173 -5.666264,-4.77354 -0.136722,0.01195 -1.53537,1.402861 -6.639155,6.602401 -1.045717,1.06534 -1.901305,1.920022 -1.901305,1.899292 0,-0.03161 2.29014,-3.084816 7.416946,-9.888236 l 0.930103,-1.234273 5.333255,5.039157 c 3.89472,3.679951 5.37163,5.043192 5.47555,5.05412 0.13421,0.01411 0.755295,-0.49957 6.379965,-9.794156 3.28003,-5.420133 6.475747,-9.913521 6.487677,-9.90159 0.0218,0.02182 -12.178652,21.673482 -12.249452,21.744367 -0.0209,0.02088 -2.52615,-2.115514 -5.56732,-4.747542 z"
           id="path36"
           sodipodi:nodetypes="ssssscsssscs" />
        <path
           style="color:#000000;fill:url(#radialGradient38);fill-opacity:0;fill-rule:evenodd;stroke-linejoin:round;-inkscape-stroke:none"
           d="m 69.474609,64.662109 c -1.28e-4,8.9e-5 -0.0076,0.0056 -0.0078,0.0059 -4.2e-4,4.47e-4 -0.0027,0.0043 -0.0039,0.0059 -0.0023,0.0031 -0.0048,0.0054 -0.0078,0.0098 -0.0059,0.0088 -0.01471,0.02238 -0.02539,0.03906 -0.02137,0.03337 -0.05115,0.08315 -0.0918,0.148438 -0.08129,0.130584 -0.200775,0.323305 -0.353516,0.572265 -0.305482,0.497921 -0.746626,1.21823 -1.289063,2.109375 -1.084873,1.782292 -2.578721,4.24499 -4.21875,6.955078 -2.812327,4.647281 -4.304974,7.110715 -5.111328,8.410157 -0.403176,0.649721 -0.633444,1.007258 -0.771484,1.201172 -0.06902,0.09696 -0.116824,0.153068 -0.146484,0.18164 -0.02966,0.02857 -0.03498,0.02757 -0.03711,0.02734 0.01268,0.0013 -0.0017,-0.0013 -0.01758,-0.01172 -0.01584,-0.01041 -0.03795,-0.02648 -0.06641,-0.04883 C 57.269284,84.222984 57.186786,84.15383 57.0801,84.060653 56.866706,83.874193 56.551586,83.588465 56.117187,83.1875 55.248391,82.385571 53.9063,81.12509 51.958984,79.285156 L 46.625,74.246094 a 0.04024923,0.04024923 0 0 0 -0.06055,0.0039 l -0.929687,1.234375 c -2.563409,3.401717 -4.417437,5.866646 -5.63086,7.484375 -0.606711,0.808864 -1.052772,1.405644 -1.347656,1.802734 -0.147442,0.198546 -0.257294,0.34726 -0.330078,0.447266 -0.03639,0.05 -0.06373,0.08712 -0.08203,0.113281 -0.0092,0.01308 -0.01652,0.0236 -0.02148,0.03125 -0.0025,0.0038 -0.004,0.0065 -0.0059,0.0098 -9.17e-4,0.0016 -8.36e-4,0.0034 -0.002,0.0059 -5.59e-4,0.0012 -0.0019,0.0056 -0.002,0.0059 -7e-5,2.15e-4 -0.0039,0.01159 -0.0039,0.01172 0,8.1e-5 0.0039,0.01752 0.0039,0.01758 2.6e-5,5.5e-5 0.01753,0.0195 0.01758,0.01953 5.2e-5,2.7e-5 0.01945,0.0039 0.01953,0.0039 7.8e-5,10e-7 0.0097,-0.0019 0.0098,-0.002 2.07e-4,-5.1e-5 0.0095,-0.0018 0.0098,-0.002 3.11e-4,-1.56e-4 0.0027,-0.0032 0.0039,-0.0039 0.0048,-0.003 0.0079,-0.0046 0.01172,-0.0078 0.0077,-0.0064 0.01827,-0.01537 0.03125,-0.02734 0.02596,-0.02395 0.06293,-0.06037 0.111328,-0.107422 0.0968,-0.0941 0.23778,-0.232102 0.410157,-0.404297 0.344754,-0.344389 0.818864,-0.824676 1.341796,-1.357421 2.55186,-2.599736 4.177212,-4.247225 5.181641,-5.246094 0.502215,-0.499435 0.850701,-0.836174 1.080078,-1.048828 0.114689,-0.106327 0.199831,-0.182234 0.259766,-0.230469 0.02997,-0.02412 0.05339,-0.03999 0.07031,-0.05078 0.01692,-0.01079 0.03028,-0.01427 0.02344,-0.01367 -0.0086,7.5e-4 -8.64e-4,-1.13e-4 0.01172,0.0059 0.01258,0.006 0.03084,0.01579 0.05469,0.03125 0.04769,0.03091 0.117077,0.0816 0.210938,0.154297 0.187721,0.145402 0.475409,0.381901 0.898437,0.738281 0.846057,0.712761 2.233526,1.907926 4.458984,3.833985 1.520645,1.316065 2.908786,2.508553 3.917969,3.36914 0.504592,0.430294 0.913702,0.776988 1.199219,1.015625 0.142758,0.119319 0.255213,0.211576 0.332031,0.273438 0.03841,0.03093 0.06689,0.0546 0.08789,0.07031 0.0105,0.0079 0.01839,0.01307 0.02539,0.01758 0.0035,0.0023 0.0071,0.0056 0.01172,0.0078 0.0023,0.0011 0.01125,0.0019 0.01172,0.002 2.33e-4,5e-5 0.01156,0.002 0.01172,0.002 1.57e-4,-1.6e-5 0.02531,-0.01164 0.02539,-0.01172 2.77e-4,-2.76e-4 0.0047,-0.0061 0.0059,-0.0078 0.0011,-0.0017 0.0028,-0.004 0.0039,-0.0059 0.0023,-0.0037 0.0044,-0.0078 0.0078,-0.01367 0.0068,-0.01183 0.01544,-0.02918 0.02734,-0.05078 0.0238,-0.0432 0.05971,-0.106289 0.103516,-0.1875 0.08761,-0.162421 0.213475,-0.398117 0.373047,-0.697265 0.319142,-0.598296 0.770224,-1.449729 1.310547,-2.46875 1.080646,-2.038041 2.514224,-4.747622 3.945312,-7.457031 1.431089,-2.70941 2.860616,-5.417311 3.929688,-7.449219 0.534535,-1.015954 0.978601,-1.863334 1.289062,-2.457031 0.155231,-0.296849 0.276823,-0.529709 0.359375,-0.689454 0.04128,-0.07987 0.07266,-0.141799 0.09375,-0.183593 0.01055,-0.0209 0.01806,-0.03765 0.02344,-0.04883 10e-4,-0.0022 0.0011,-0.004 0.002,-0.0059 0.0014,-0.0029 0.0049,-0.0055 0.0059,-0.0078 8.04e-4,-0.0018 0.0011,-0.0034 0.002,-0.0059 8.79e-4,-0.0025 -0.0097,-0.04288 -0.0098,-0.04297 -4.7e-5,-4.7e-5 -0.05065,-0.004 -0.05078,-0.0039 z M 69.003906,65.5625 c -0.01097,0.02099 -0.01406,0.02911 -0.02539,0.05078 -0.310401,0.593581 -0.756497,1.441109 -1.291016,2.457031 -1.069038,2.031846 -2.496661,4.737885 -3.927734,7.447266 -1.431074,2.709381 -2.8647,5.421006 -3.945313,7.458984 -0.540306,1.01899 -0.993418,1.870568 -1.3125,2.46875 -0.159541,0.299092 -0.285548,0.535061 -0.373047,0.697266 -0.04375,0.0811 -0.07798,0.142746 -0.101562,0.185547 -0.0076,0.01371 -0.01222,0.0217 -0.01758,0.03125 -0.0194,-0.01465 -0.04447,-0.03578 -0.08008,-0.06445 -0.07607,-0.06126 -0.187512,-0.152327 -0.330078,-0.271485 -0.285131,-0.238314 -0.696693,-0.585427 -1.201172,-1.015625 -1.008956,-0.860394 -2.395492,-2.05318 -3.916015,-3.36914 -2.225525,-1.926116 -3.614154,-3.122566 -4.460938,-3.835938 -0.423391,-0.356686 -0.710825,-0.591451 -0.90039,-0.738281 -0.09478,-0.07341 -0.165575,-0.124999 -0.216797,-0.158203 -0.02561,-0.0166 -0.04657,-0.02862 -0.06445,-0.03711 -0.01788,-0.0085 -0.03039,-0.01563 -0.05273,-0.01367 -0.02393,0.0021 -0.03751,0.01195 -0.05859,0.02539 -0.02108,0.01344 -0.0468,0.03143 -0.07813,0.05664 -0.06266,0.05043 -0.148265,0.127381 -0.263672,0.234375 -0.230815,0.213988 -0.579522,0.551053 -1.082032,1.050781 -1.005019,0.999457 -2.629719,2.646295 -5.18164,5.246094 -0.522783,0.532593 -0.999282,1.013318 -1.34375,1.357422 -0.101681,0.101573 -0.163508,0.162538 -0.240235,0.238281 0.0582,-0.07898 0.100742,-0.135202 0.181641,-0.244141 0.294729,-0.396882 0.740983,-0.995873 1.347656,-1.804687 1.213347,-1.617628 3.067467,-4.080726 5.63086,-7.482422 l 0.902343,-1.199219 5.300782,5.009766 c 1.9474,1.840014 3.290839,3.099934 4.160156,3.902344 0.434658,0.401205 0.750358,0.687674 0.964844,0.875 0.107242,0.09366 0.189083,0.162668 0.248047,0.208984 0.02948,0.02316 0.05315,0.04018 0.07227,0.05273 0.01911,0.01256 0.02902,0.02269 0.05469,0.02539 0.03142,0.0033 0.06458,-0.0132 0.101562,-0.04883 0.03698,-0.03562 0.08402,-0.09463 0.154297,-0.193359 0.140558,-0.197451 0.371933,-0.556858 0.775391,-1.207032 0.806915,-1.300346 2.300944,-3.76286 5.113281,-8.410156 1.639999,-2.710039 3.131978,-5.170923 4.216797,-6.953125 0.52221,-0.857915 0.93659,-1.538011 1.240234,-2.033203 z"
           id="path37" />
      </g>
    </g>
  </g>
</svg>
