<svg width="128" height="128" viewBox="0 0 33.867 33.867" xmlns:xlink="http://www.w3.org/1999/xlink" xmlns="http://www.w3.org/2000/svg"><defs><radialGradient xlink:href="#a" id="b" cx="595.881" cy="327.278" fx="595.881" fy="327.278" r="69.829" gradientTransform="matrix(.1203 0 0 .0837 -53.924 -7.097)" gradientUnits="userSpaceOnUse"/><radialGradient xlink:href="#a" id="c" cx="595.881" cy="327.278" fx="595.881" fy="327.278" r="69.829" gradientTransform="matrix(.2243 0 0 .15606 -79.783 24.485)" gradientUnits="userSpaceOnUse"/><radialGradient xlink:href="#a" id="d" gradientUnits="userSpaceOnUse" gradientTransform="matrix(.2243 0 0 .15606 -79.783 24.485)" cx="595.881" cy="327.278" fx="595.881" fy="327.278" r="69.829"/><radialGradient xlink:href="#a" id="e" gradientUnits="userSpaceOnUse" gradientTransform="matrix(.2243 0 0 .15606 -79.783 24.485)" cx="595.881" cy="327.278" fx="595.881" fy="327.278" r="69.829"/><radialGradient xlink:href="#a" id="f" gradientUnits="userSpaceOnUse" gradientTransform="matrix(.2243 0 0 .15606 -79.783 24.485)" cx="595.881" cy="327.278" fx="595.881" fy="327.278" r="69.829"/><radialGradient xlink:href="#a" id="g" gradientUnits="userSpaceOnUse" gradientTransform="matrix(.12791 0 0 .089 86.88 -1.367)" cx="595.881" cy="327.278" fx="595.881" fy="327.278" r="69.829"/><radialGradient xlink:href="#a" id="h" cx="595.881" cy="327.278" fx="595.881" fy="327.278" r="69.829" gradientTransform="matrix(.12791 0 0 .089 -33.091 50.481)" gradientUnits="userSpaceOnUse"/><radialGradient xlink:href="#a" id="i" gradientUnits="userSpaceOnUse" gradientTransform="matrix(.12791 0 0 .089 -153.756 -34.189)" cx="595.881" cy="327.278" fx="595.881" fy="327.278" r="69.829"/><radialGradient xlink:href="#a" id="j" gradientUnits="userSpaceOnUse" gradientTransform="matrix(.1203 0 0 .0837 -142.526 30.552)" cx="595.881" cy="327.278" fx="595.881" fy="327.278" r="69.829"/><linearGradient id="a"><stop style="stop-color:#fff;stop-opacity:0" offset="0"/><stop style="stop-color:#fff;stop-opacity:0" offset="1"/></linearGradient></defs><path style="fill:#ff3ee5;fill-opacity:1;fill-rule:evenodd;stroke:#fff;stroke-width:.00942803;stroke-linejoin:round;stroke-opacity:0" d="m-24.362 10.841 1.157-9.404-.144 10.157-11.645-.442z"/><circle style="fill:#fff;fill-opacity:1;fill-rule:evenodd;stroke:#000;stroke-width:.313056;stroke-linecap:round;stroke-opacity:.0321285;paint-order:stroke markers fill" cx="17.076" cy="17.049" r="16.445"/><circle style="fill:#000;fill-opacity:1;fill-rule:evenodd;stroke:#000;stroke-width:.301276;stroke-linecap:round;stroke-opacity:.0321285;paint-order:stroke markers fill" cx="17.049" cy="17.049" r="15.826"/><path style="fill:#fff;fill-opacity:0;fill-rule:evenodd;stroke:#fff;stroke-width:.00958554;stroke-linejoin:round;stroke-opacity:0" d="M8.496 24.612s-.047.054.164-.126c.3-.256 5.785-5.27 5.785-5.27l3.229 3.374L23.698 9.9l-.886 1.473-5.457 9.174-2.864-2.9z" fill="none"/><path style="fill:#ff3ee5;fill-opacity:1;fill-rule:evenodd;stroke:#fff;stroke-width:.00838448;stroke-linejoin:round;stroke-opacity:0" d="m-34.296.154-.795 10.82-.728-12.1 8.832.922z"/><path style="fill:#fff;fill-opacity:0;fill-rule:evenodd;stroke:#fff;stroke-width:.00958554;stroke-linejoin:round;stroke-opacity:0" d="M10.807 22.517c.097-.134 3.055-3.26 3.055-3.26l3.312 2.991L21 14.686" fill="none"/><path style="fill:#fff;fill-opacity:0;fill-rule:evenodd;stroke:#fff;stroke-width:.139661;stroke-linejoin:round;stroke-opacity:0" d="M5.306 27.683s-.067.074.238-.174c.432-.353 8.343-7.271 8.343-7.271l4.656 4.656 8.689-17.51-1.279 2.033-7.87 12.657-4.13-4z" fill="none"/><path style="fill:#fff;fill-opacity:0;fill-rule:evenodd;stroke:#fff;stroke-width:.139661;stroke-linejoin:round;stroke-opacity:0" d="M8.64 24.793c.14-.185 4.406-4.498 4.406-4.498l4.776 4.127L23.34 13.99" fill="none"/><path style="fill:#fff;fill-opacity:1;fill-rule:evenodd;stroke:#fff;stroke-width:.17686;stroke-linejoin:round;stroke-opacity:0" d="m4.999 27.347 8.701-9.721 5.994 5.598 9.204-16.342-10.013 9.827-6.274-6.458z"/><path style="fill:#fff;fill-opacity:1;fill-rule:evenodd;stroke:url(#b);stroke-width:.0431676;stroke-linejoin:round;stroke-opacity:0" d="M16.997 23.571c-2.387-2.066-2.98-2.565-3.039-2.56-.073.006-.823.752-3.56 3.54-.561.572-1.02 1.03-1.02 1.02 0-.018 1.228-1.655 3.978-5.304l.499-.662 2.86 2.703c2.089 1.973 2.88 2.705 2.936 2.71.072.008.259-.292 3.275-5.277 1.76-2.907 3.096-5.409 3.103-5.402.011.012-6.008 11.74-6.046 11.778-.011.011-1.355-1.134-2.986-2.546z"/><path style="fill:#fff;fill-opacity:1;fill-rule:evenodd;stroke:#fff;stroke-width:.316954;stroke-linejoin:round;stroke-opacity:0" d="m53.519 52.342 3.85-29.937-.48 32.334-38.75-1.406z" transform="translate(-194.575 79.569)"/><path style="fill:#fff;fill-opacity:0;fill-rule:evenodd;stroke:#fff;stroke-width:.329774;stroke-linejoin:round;stroke-opacity:0" d="M11.548 57.27s-.159.176.561-.41c1.021-.833 19.7-17.17 19.7-17.17l10.994 10.995L63.32 9.34l-3.02 4.8-18.58 29.886-9.755-9.445z" transform="translate(-194.575 79.569)" fill="none"/><path style="fill:#fff;fill-opacity:1;fill-rule:evenodd;stroke:#fff;stroke-width:.281875;stroke-linejoin:round;stroke-opacity:0" d="m20.463 18.321-2.647 34.445-2.421-38.516 29.388 2.931Z" transform="translate(-194.575 79.569)"/><path style="fill:#fff;fill-opacity:1;fill-rule:evenodd;stroke:#fff;stroke-width:.329774;stroke-linejoin:round;stroke-opacity:0" d="M14.986 59.68 31.41 27.6l11.606 10.73L69.952 7.124 42.797 34.607 31.191 24.533Z" transform="translate(-194.575 79.569)"/><path style="fill:#fff;fill-opacity:0;fill-rule:evenodd;stroke:#fff;stroke-width:.329774;stroke-linejoin:round;stroke-opacity:0" d="M19.42 50.447c.33-.438 10.403-10.621 10.403-10.621L41.1 49.57l13.03-24.636" transform="translate(-194.575 79.569)" fill="none"/><path style="color:#000;fill:#fff;fill-rule:evenodd;stroke-linejoin:round;-inkscape-stroke:none" d="M52.457 81.669c-4.451-3.852-5.556-4.783-5.666-4.774-.137.012-1.536 1.403-6.64 6.603-1.045 1.065-1.9 1.92-1.9 1.899 0-.032 2.29-3.085 7.416-9.888l.93-1.234 5.333 5.039c3.895 3.68 5.372 5.043 5.476 5.054.134.014.755-.5 6.38-9.794 3.28-5.42 6.476-9.914 6.488-9.902.021.022-12.18 21.674-12.25 21.744-.02.021-2.526-2.115-5.567-4.747" transform="translate(-208.935 38.439)"/><path style="color:#000;fill:url(#c);fill-opacity:0;fill-rule:evenodd;stroke-linejoin:round;-inkscape-stroke:none" d="m69.475 64.662-.008.006-.004.006-.008.01-.025.039-.092.148-.354.572c-.305.498-.746 1.219-1.289 2.11a3353 3353 0 0 0-4.218 6.955c-2.813 4.647-4.305 7.11-5.112 8.41a27 27 0 0 1-.771 1.201 1.4 1.4 0 0 1-.147.182c-.03.028-.035.027-.037.027.013.002-.002-.001-.017-.011l-.067-.05a7 7 0 0 1-.246-.206 52 52 0 0 1-.963-.874c-.869-.801-2.21-2.062-4.158-3.902l-5.334-5.039a.04.04 0 0 0-.06.004l-.93 1.234a4538 4538 0 0 0-5.631 7.485 512 512 0 0 0-1.678 2.25l-.082.113-.021.031-.006.01-.002.006-.002.006-.004.012.004.017.017.02.02.004.01-.002.01-.002.003-.004.012-.008.031-.027.112-.108c.096-.094.237-.232.41-.404.345-.345.819-.825 1.342-1.358 2.551-2.6 4.177-4.247 5.181-5.246.502-.5.851-.836 1.08-1.048q.171-.16.26-.231l.07-.05c.017-.012.03-.015.024-.014-.009 0-.001 0 .012.005l.054.032q.071.045.211.154c.188.145.476.382.899.738a544 544 0 0 1 4.459 3.834 742 742 0 0 0 3.918 3.37c.504.43.913.776 1.199 1.015q.216.18.332.273.057.047.088.07.015.013.025.018.005.005.012.008l.012.002.011.002.026-.012.006-.007.003-.006.008-.014.028-.05.103-.188.373-.697c.32-.599.77-1.45 1.31-2.47a5613 5613 0 0 0 9.165-17.362l.453-.874.023-.048.002-.006.006-.008.002-.006-.01-.043zm-.471.9-.025.051c-.31.594-.757 1.441-1.291 2.457a5659 5659 0 0 1-9.56 18.073l-.1.185-.018.031q-.029-.02-.08-.064l-.33-.272c-.286-.238-.697-.585-1.202-1.015a753 753 0 0 1-3.916-3.37 529 529 0 0 0-4.46-3.835 33 33 0 0 0-.9-.739 3 3 0 0 0-.218-.158l-.064-.037c-.018-.008-.03-.015-.053-.014-.024.003-.037.012-.058.026a1 1 0 0 0-.079.057q-.092.074-.263.234c-.231.214-.58.55-1.082 1.05-1.005 1-2.63 2.647-5.182 5.247a235 235 0 0 1-1.584 1.595l.182-.244c.294-.397.74-.996 1.347-1.804a4750 4750 0 0 1 5.631-7.483l.903-1.199 5.3 5.01a551 551 0 0 0 4.16 3.902c.435.401.75.688.965.875q.161.14.248.21.045.034.073.052c.019.012.029.023.054.025q.047.006.102-.049c.037-.035.084-.094.154-.193.14-.197.372-.557.776-1.207.807-1.3 2.3-3.763 5.113-8.41a3396 3396 0 0 1 5.457-8.987" transform="translate(-208.935 38.439)" fill="none"/><path style="fill:#fff;fill-opacity:1;fill-rule:evenodd;stroke:#fff;stroke-width:.316954;stroke-linejoin:round;stroke-opacity:0" d="m53.519 52.342 3.85-29.937-.48 32.334-38.75-1.406z" transform="translate(-137.338 104.001)scale(.57788)"/><path style="fill:#fff;fill-opacity:0;fill-rule:evenodd;stroke:#fff;stroke-width:.329774;stroke-linejoin:round;stroke-opacity:0" d="M11.548 57.27s-.159.176.561-.41c1.021-.833 19.7-17.17 19.7-17.17l10.994 10.995L63.32 9.34l-3.02 4.8-18.58 29.886-9.755-9.445z" transform="translate(-137.338 104.001)scale(.57788)" fill="none"/><path style="fill:#fff;fill-opacity:1;fill-rule:evenodd;stroke:#fff;stroke-width:.281875;stroke-linejoin:round;stroke-opacity:0" d="m20.463 18.321-2.647 34.445-2.421-38.516 29.388 2.931Z" transform="translate(-137.338 104.001)scale(.57788)"/><path style="fill:#fff;fill-opacity:1;fill-rule:evenodd;stroke:#fff;stroke-width:.329774;stroke-linejoin:round;stroke-opacity:0" d="M14.986 59.68 31.41 27.6l11.606 10.73L69.952 7.124 42.797 34.607 31.191 24.533Z" transform="translate(-137.338 104.001)scale(.57788)"/><path style="fill:#fff;fill-opacity:0;fill-rule:evenodd;stroke:#fff;stroke-width:.329774;stroke-linejoin:round;stroke-opacity:0" d="M19.42 50.447c.33-.438 10.403-10.621 10.403-10.621L41.1 49.57l13.03-24.636" transform="translate(-137.338 104.001)scale(.57788)" fill="none"/><path style="color:#000;fill:#fff;fill-rule:evenodd;stroke-linejoin:round;-inkscape-stroke:none" d="M52.457 81.669c-4.451-3.852-5.556-4.783-5.666-4.774-.137.012-1.536 1.403-6.64 6.603-1.045 1.065-1.9 1.92-1.9 1.899 0-.032 2.29-3.085 7.416-9.888l.93-1.234 5.333 5.039c3.895 3.68 5.372 5.043 5.476 5.054.134.014.755-.5 6.38-9.794 3.28-5.42 6.476-9.914 6.488-9.902.021.022-12.18 21.674-12.25 21.744-.02.021-2.526-2.115-5.567-4.747" transform="translate(-145.636 80.233)scale(.57788)"/><path style="color:#000;fill:url(#d);fill-opacity:0;fill-rule:evenodd;stroke-linejoin:round;-inkscape-stroke:none" d="m69.475 64.662-.008.006-.004.006-.008.01-.025.039-.092.148-.354.572c-.305.498-.746 1.219-1.289 2.11a3353 3353 0 0 0-4.218 6.955c-2.813 4.647-4.305 7.11-5.112 8.41a27 27 0 0 1-.771 1.201 1.4 1.4 0 0 1-.147.182c-.03.028-.035.027-.037.027.013.002-.002-.001-.017-.011l-.067-.05a7 7 0 0 1-.246-.206 52 52 0 0 1-.963-.874c-.869-.801-2.21-2.062-4.158-3.902l-5.334-5.039a.04.04 0 0 0-.06.004l-.93 1.234a4538 4538 0 0 0-5.631 7.485 512 512 0 0 0-1.678 2.25l-.082.113-.021.031-.006.01-.002.006-.002.006-.004.012.004.017.017.02.02.004.01-.002.01-.002.003-.004.012-.008.031-.027.112-.108c.096-.094.237-.232.41-.404.345-.345.819-.825 1.342-1.358 2.551-2.6 4.177-4.247 5.181-5.246.502-.5.851-.836 1.08-1.048q.171-.16.26-.231l.07-.05c.017-.012.03-.015.024-.014-.009 0-.001 0 .012.005l.054.032q.071.045.211.154c.188.145.476.382.899.738a544 544 0 0 1 4.459 3.834 742 742 0 0 0 3.918 3.37c.504.43.913.776 1.199 1.015q.216.18.332.273.057.047.088.07.015.013.025.018.005.005.012.008l.012.002.011.002.026-.012.006-.007.003-.006.008-.014.028-.05.103-.188.373-.697c.32-.599.77-1.45 1.31-2.47a5613 5613 0 0 0 9.165-17.362l.453-.874.023-.048.002-.006.006-.008.002-.006-.01-.043zm-.471.9-.025.051c-.31.594-.757 1.441-1.291 2.457a5659 5659 0 0 1-9.56 18.073l-.1.185-.018.031q-.029-.02-.08-.064l-.33-.272c-.286-.238-.697-.585-1.202-1.015a753 753 0 0 1-3.916-3.37 529 529 0 0 0-4.46-3.835 33 33 0 0 0-.9-.739 3 3 0 0 0-.218-.158l-.064-.037c-.018-.008-.03-.015-.053-.014-.024.003-.037.012-.058.026a1 1 0 0 0-.079.057q-.092.074-.263.234c-.231.214-.58.55-1.082 1.05-1.005 1-2.63 2.647-5.182 5.247a235 235 0 0 1-1.584 1.595l.182-.244c.294-.397.74-.996 1.347-1.804a4750 4750 0 0 1 5.631-7.483l.903-1.199 5.3 5.01a551 551 0 0 0 4.16 3.902c.435.401.75.688.965.875q.161.14.248.21.045.034.073.052c.019.012.029.023.054.025q.047.006.102-.049c.037-.035.084-.094.154-.193.14-.197.372-.557.776-1.207.807-1.3 2.3-3.763 5.113-8.41a3396 3396 0 0 1 5.457-8.987" transform="translate(-145.636 80.233)scale(.57788)" fill="none"/><path style="fill:#fff;fill-opacity:1;fill-rule:evenodd;stroke:#fff;stroke-width:.316954;stroke-linejoin:round;stroke-opacity:0" d="m53.519 52.342 3.85-29.937-.48 32.334-38.75-1.406z" transform="translate(-100.048 115.503)scale(.37273)"/><path style="fill:#fff;fill-opacity:0;fill-rule:evenodd;stroke:#fff;stroke-width:.329774;stroke-linejoin:round;stroke-opacity:0" d="M11.548 57.27s-.159.176.561-.41c1.021-.833 19.7-17.17 19.7-17.17l10.994 10.995L63.32 9.34l-3.02 4.8-18.58 29.886-9.755-9.445z" transform="translate(-100.048 115.503)scale(.37273)" fill="none"/><path style="fill:#fff;fill-opacity:1;fill-rule:evenodd;stroke:#fff;stroke-width:.281875;stroke-linejoin:round;stroke-opacity:0" d="m20.463 18.321-2.647 34.445-2.421-38.516 29.388 2.931Z" transform="translate(-100.048 115.503)scale(.37273)"/><path style="fill:#fff;fill-opacity:1;fill-rule:evenodd;stroke:#fff;stroke-width:.329774;stroke-linejoin:round;stroke-opacity:0" d="M14.986 59.68 31.41 27.6l11.606 10.73L69.952 7.124 42.797 34.607 31.191 24.533Z" transform="translate(-100.048 115.503)scale(.37273)"/><path style="fill:#fff;fill-opacity:0;fill-rule:evenodd;stroke:#fff;stroke-width:.329774;stroke-linejoin:round;stroke-opacity:0" d="M19.42 50.447c.33-.438 10.403-10.621 10.403-10.621L41.1 49.57l13.03-24.636" transform="translate(-100.048 115.503)scale(.37273)" fill="none"/><path style="color:#000;fill:#fff;fill-rule:evenodd;stroke-linejoin:round;-inkscape-stroke:none" d="M52.457 81.669c-4.451-3.852-5.556-4.783-5.666-4.774-.137.012-1.536 1.403-6.64 6.603-1.045 1.065-1.9 1.92-1.9 1.899 0-.032 2.29-3.085 7.416-9.888l.93-1.234 5.333 5.039c3.895 3.68 5.372 5.043 5.476 5.054.134.014.755-.5 6.38-9.794 3.28-5.42 6.476-9.914 6.488-9.902.021.022-12.18 21.674-12.25 21.744-.02.021-2.526-2.115-5.567-4.747" transform="translate(-105.4 100.173)scale(.37273)"/><path style="color:#000;fill:url(#e);fill-opacity:0;fill-rule:evenodd;stroke-linejoin:round;-inkscape-stroke:none" d="m69.475 64.662-.008.006-.004.006-.008.01-.025.039-.092.148-.354.572c-.305.498-.746 1.219-1.289 2.11a3353 3353 0 0 0-4.218 6.955c-2.813 4.647-4.305 7.11-5.112 8.41a27 27 0 0 1-.771 1.201 1.4 1.4 0 0 1-.147.182c-.03.028-.035.027-.037.027.013.002-.002-.001-.017-.011l-.067-.05a7 7 0 0 1-.246-.206 52 52 0 0 1-.963-.874c-.869-.801-2.21-2.062-4.158-3.902l-5.334-5.039a.04.04 0 0 0-.06.004l-.93 1.234a4538 4538 0 0 0-5.631 7.485 512 512 0 0 0-1.678 2.25l-.082.113-.021.031-.006.01-.002.006-.002.006-.004.012.004.017.017.02.02.004.01-.002.01-.002.003-.004.012-.008.031-.027.112-.108c.096-.094.237-.232.41-.404.345-.345.819-.825 1.342-1.358 2.551-2.6 4.177-4.247 5.181-5.246.502-.5.851-.836 1.08-1.048q.171-.16.26-.231l.07-.05c.017-.012.03-.015.024-.014-.009 0-.001 0 .012.005l.054.032q.071.045.211.154c.188.145.476.382.899.738a544 544 0 0 1 4.459 3.834 742 742 0 0 0 3.918 3.37c.504.43.913.776 1.199 1.015q.216.18.332.273.057.047.088.07.015.013.025.018.005.005.012.008l.012.002.011.002.026-.012.006-.007.003-.006.008-.014.028-.05.103-.188.373-.697c.32-.599.77-1.45 1.31-2.47a5613 5613 0 0 0 9.165-17.362l.453-.874.023-.048.002-.006.006-.008.002-.006-.01-.043zm-.471.9-.025.051c-.31.594-.757 1.441-1.291 2.457a5659 5659 0 0 1-9.56 18.073l-.1.185-.018.031q-.029-.02-.08-.064l-.33-.272c-.286-.238-.697-.585-1.202-1.015a753 753 0 0 1-3.916-3.37 529 529 0 0 0-4.46-3.835 33 33 0 0 0-.9-.739 3 3 0 0 0-.218-.158l-.064-.037c-.018-.008-.03-.015-.053-.014-.024.003-.037.012-.058.026a1 1 0 0 0-.079.057q-.092.074-.263.234c-.231.214-.58.55-1.082 1.05-1.005 1-2.63 2.647-5.182 5.247a235 235 0 0 1-1.584 1.595l.182-.244c.294-.397.74-.996 1.347-1.804a4750 4750 0 0 1 5.631-7.483l.903-1.199 5.3 5.01a551 551 0 0 0 4.16 3.902c.435.401.75.688.965.875q.161.14.248.21.045.034.073.052c.019.012.029.023.054.025q.047.006.102-.049c.037-.035.084-.094.154-.193.14-.197.372-.557.776-1.207.807-1.3 2.3-3.763 5.113-8.41a3396 3396 0 0 1 5.457-8.987" transform="translate(-105.4 100.173)scale(.37273)" fill="none"/><path style="fill:#fff;fill-opacity:1;fill-rule:evenodd;stroke:#fff;stroke-width:.316954;stroke-linejoin:round;stroke-opacity:0" d="m53.519 52.342 3.85-29.937-.48 32.334-38.75-1.406z" transform="translate(-75.775 123.632)scale(.21444)"/><path style="fill:#fff;fill-opacity:0;fill-rule:evenodd;stroke:#fff;stroke-width:.329774;stroke-linejoin:round;stroke-opacity:0" d="M11.548 57.27s-.159.176.561-.41c1.021-.833 19.7-17.17 19.7-17.17l10.994 10.995L63.32 9.34l-3.02 4.8-18.58 29.886-9.755-9.445z" transform="translate(-75.775 123.632)scale(.21444)" fill="none"/><path style="fill:#fff;fill-opacity:1;fill-rule:evenodd;stroke:#fff;stroke-width:.281875;stroke-linejoin:round;stroke-opacity:0" d="m20.463 18.321-2.647 34.445-2.421-38.516 29.388 2.931Z" transform="translate(-75.775 123.632)scale(.21444)"/><path style="fill:#fff;fill-opacity:1;fill-rule:evenodd;stroke:#fff;stroke-width:.329774;stroke-linejoin:round;stroke-opacity:0" d="M14.986 59.68 31.41 27.6l11.606 10.73L69.952 7.124 42.797 34.607 31.191 24.533Z" transform="translate(-75.775 123.632)scale(.21444)"/><path style="fill:#fff;fill-opacity:0;fill-rule:evenodd;stroke:#fff;stroke-width:.329774;stroke-linejoin:round;stroke-opacity:0" d="M19.42 50.447c.33-.438 10.403-10.621 10.403-10.621L41.1 49.57l13.03-24.636" transform="translate(-75.775 123.632)scale(.21444)" fill="none"/><path style="color:#000;fill:#fff;fill-rule:evenodd;stroke-linejoin:round;-inkscape-stroke:none" d="M52.457 81.669c-4.451-3.852-5.556-4.783-5.666-4.774-.137.012-1.536 1.403-6.64 6.603-1.045 1.065-1.9 1.92-1.9 1.899 0-.032 2.29-3.085 7.416-9.888l.93-1.234 5.333 5.039c3.895 3.68 5.372 5.043 5.476 5.054.134.014.755-.5 6.38-9.794 3.28-5.42 6.476-9.914 6.488-9.902.021.022-12.18 21.674-12.25 21.744-.02.021-2.526-2.115-5.567-4.747" transform="translate(-78.854 114.812)scale(.21444)"/><path style="color:#000;fill:url(#f);fill-opacity:0;fill-rule:evenodd;stroke-linejoin:round;-inkscape-stroke:none" d="m69.475 64.662-.008.006-.004.006-.008.01-.025.039-.092.148-.354.572c-.305.498-.746 1.219-1.289 2.11a3353 3353 0 0 0-4.218 6.955c-2.813 4.647-4.305 7.11-5.112 8.41a27 27 0 0 1-.771 1.201 1.4 1.4 0 0 1-.147.182c-.03.028-.035.027-.037.027.013.002-.002-.001-.017-.011l-.067-.05a7 7 0 0 1-.246-.206 52 52 0 0 1-.963-.874c-.869-.801-2.21-2.062-4.158-3.902l-5.334-5.039a.04.04 0 0 0-.06.004l-.93 1.234a4538 4538 0 0 0-5.631 7.485 512 512 0 0 0-1.678 2.25l-.082.113-.021.031-.006.01-.002.006-.002.006-.004.012.004.017.017.02.02.004.01-.002.01-.002.003-.004.012-.008.031-.027.112-.108c.096-.094.237-.232.41-.404.345-.345.819-.825 1.342-1.358 2.551-2.6 4.177-4.247 5.181-5.246.502-.5.851-.836 1.08-1.048q.171-.16.26-.231l.07-.05c.017-.012.03-.015.024-.014-.009 0-.001 0 .012.005l.054.032q.071.045.211.154c.188.145.476.382.899.738a544 544 0 0 1 4.459 3.834 742 742 0 0 0 3.918 3.37c.504.43.913.776 1.199 1.015q.216.18.332.273.057.047.088.07.015.013.025.018.005.005.012.008l.012.002.011.002.026-.012.006-.007.003-.006.008-.014.028-.05.103-.188.373-.697c.32-.599.77-1.45 1.31-2.47a5613 5613 0 0 0 9.165-17.362l.453-.874.023-.048.002-.006.006-.008.002-.006-.01-.043zm-.471.9-.025.051c-.31.594-.757 1.441-1.291 2.457a5659 5659 0 0 1-9.56 18.073l-.1.185-.018.031q-.029-.02-.08-.064l-.33-.272c-.286-.238-.697-.585-1.202-1.015a753 753 0 0 1-3.916-3.37 529 529 0 0 0-4.46-3.835 33 33 0 0 0-.9-.739 3 3 0 0 0-.218-.158l-.064-.037c-.018-.008-.03-.015-.053-.014-.024.003-.037.012-.058.026a1 1 0 0 0-.079.057q-.092.074-.263.234c-.231.214-.58.55-1.082 1.05-1.005 1-2.63 2.647-5.182 5.247a235 235 0 0 1-1.584 1.595l.182-.244c.294-.397.74-.996 1.347-1.804a4750 4750 0 0 1 5.631-7.483l.903-1.199 5.3 5.01a551 551 0 0 0 4.16 3.902c.435.401.75.688.965.875q.161.14.248.21.045.034.073.052c.019.012.029.023.054.025q.047.006.102-.049c.037-.035.084-.094.154-.193.14-.197.372-.557.776-1.207.807-1.3 2.3-3.763 5.113-8.41a3396 3396 0 0 1 5.457-8.987" transform="translate(-78.854 114.812)scale(.21444)" fill="none"/><path style="fill:#fff;fill-opacity:0;fill-rule:evenodd;stroke:#fff;stroke-width:.00980926;stroke-linejoin:round;stroke-opacity:0" d="M70.482 24.598s-.048.055.168-.13c.307-.261 5.92-5.393 5.92-5.393l3.304 3.454L86.039 9.54l-.907 1.508-5.584 9.388-2.931-2.967z" fill="none"/><path style="fill:#fff;fill-opacity:0;fill-rule:evenodd;stroke:#fff;stroke-width:.00980926;stroke-linejoin:round;stroke-opacity:0" d="M72.847 22.454c.1-.138 3.126-3.336 3.126-3.336l3.39 3.06 3.915-7.738" fill="none"/><circle style="fill:#000;fill-opacity:1;fill-rule:evenodd;stroke:#000;stroke-width:.320363;stroke-linecap:round;stroke-opacity:.0321285;paint-order:stroke markers fill" cx="119.342" cy="17.953" r="16.829"/><path style="fill:#fff;fill-opacity:0;fill-rule:evenodd;stroke:#fff;stroke-width:.00980926;stroke-linejoin:round;stroke-opacity:0" d="M110.588 25.693s-.047.055.17-.13c.306-.261 5.919-5.393 5.919-5.393l3.304 3.454 6.165-12.988-.907 1.508-5.584 9.388-2.932-2.967z" fill="none"/><path style="fill:#fff;fill-opacity:0;fill-rule:evenodd;stroke:#fff;stroke-width:.00980926;stroke-linejoin:round;stroke-opacity:0" d="M112.954 23.549c.099-.138 3.126-3.336 3.126-3.336l3.389 3.06 3.915-7.738" fill="none"/><path style="fill:#fff;fill-opacity:0;fill-rule:evenodd;stroke:#fff;stroke-width:.142921;stroke-linejoin:round;stroke-opacity:0" d="M107.325 28.835s-.07.076.243-.178c.442-.36 8.537-7.44 8.537-7.44l4.765 4.764 8.892-17.918-1.309 2.08-8.053 12.952-4.228-4.093z" fill="none"/><path style="fill:#fff;fill-opacity:0;fill-rule:evenodd;stroke:#fff;stroke-width:.142921;stroke-linejoin:round;stroke-opacity:0" d="M110.736 25.878c.143-.19 4.509-4.603 4.509-4.603l4.887 4.223 5.647-10.677" fill="none"/><path style="fill:#fff;fill-opacity:1;fill-rule:evenodd;stroke:#fff;stroke-width:.180755;stroke-linejoin:round;stroke-opacity:0" d="m129.166 28.363 2.196-17.073-.274 18.44-22.098-.802z"/><path style="fill:#fff;fill-opacity:1;fill-rule:evenodd;stroke:#fff;stroke-width:.160749;stroke-linejoin:round;stroke-opacity:0" d="m110.315 8.961-1.51 19.643-1.38-21.965 16.76 1.672Z"/><path style="fill:#ff3ee5;fill-opacity:1;fill-rule:evenodd;stroke:#fff;stroke-width:.0115724;stroke-linejoin:round;stroke-opacity:0" d="m110.105 27.943 7.542-9.94 3.792 4.076 8.513-13.37-8.903 8.953-4.335-4.847z"/><path style="color:#000;fill:#fff;fill-opacity:1;fill-rule:evenodd;stroke-width:.0350919;stroke-linejoin:round;-inkscape-stroke:none" d="M119.65 22.57c-1.498-1.513-1.87-1.88-1.909-1.878-.049.002-.572.49-2.485 2.314-.392.374-.712.673-.711.666 0-.012.873-1.097 2.827-3.515l.354-.438 1.785 1.968c1.304 1.438 1.799 1.971 1.835 1.977.048.008.278-.17 2.458-3.5 1.272-1.941 2.439-3.774 2.443-3.769.008.009-4.697 8.015-4.724 8.04-.007.007-.85-.833-1.874-1.866"/><path style="fill:#fff;fill-opacity:1;fill-rule:evenodd;stroke:#fff;stroke-width:.188065;stroke-linejoin:round;stroke-opacity:0" d="m151.796 36.438 6.479-13.833 7.091 6.592 10.287-15.324-10.884 11.31-6.671-6.636z"/><path style="fill:#fff;fill-opacity:1;fill-rule:evenodd;stroke:url(#g);stroke-width:.0459024;stroke-linejoin:round;stroke-opacity:0" d="M162.294 31.244c-2.538-2.197-3.169-2.728-3.232-2.722-.078.007-.875.8-3.786 3.765-.596.608-1.084 1.095-1.084 1.083 0-.018 1.306-1.759 4.23-5.639l.53-.704 3.042 2.874c2.22 2.099 3.063 2.876 3.122 2.882.077.008.275-.31 3.482-5.611 1.871-3.091 3.407-5.615 3.414-5.608.012.013-6.503 12.347-6.543 12.388-.012.011-1.44-1.207-3.175-2.708z"/><circle style="fill:#000;fill-opacity:1;fill-rule:evenodd;stroke:#000;stroke-width:.320363;stroke-linecap:round;stroke-opacity:.0321285;paint-order:stroke markers fill" cx="42.654" cy="77.05" r="16.829"/><path style="fill:#fff;fill-opacity:0;fill-rule:evenodd;stroke:#fff;stroke-width:.00980926;stroke-linejoin:round;stroke-opacity:0" d="M33.9 84.79s-.047.054.169-.13c.307-.262 5.92-5.393 5.92-5.393l3.303 3.453 6.166-12.988-.907 1.508-5.584 9.389-2.932-2.968z" fill="none"/><path style="fill:#fff;fill-opacity:0;fill-rule:evenodd;stroke:#fff;stroke-width:.00980926;stroke-linejoin:round;stroke-opacity:0" d="M36.266 82.646c.099-.138 3.126-3.337 3.126-3.337l3.389 3.061 3.915-7.739" fill="none"/><path style="fill:#fff;fill-opacity:0;fill-rule:evenodd;stroke:#fff;stroke-width:.142921;stroke-linejoin:round;stroke-opacity:0" d="M30.636 87.932s-.068.076.244-.178c.442-.361 8.537-7.441 8.537-7.441l4.765 4.765 8.892-17.918-1.309 2.08-8.053 12.952-4.228-4.094z" fill="none"/><path style="fill:#fff;fill-opacity:0;fill-rule:evenodd;stroke:#fff;stroke-width:.142921;stroke-linejoin:round;stroke-opacity:0" d="M34.048 84.975c.143-.19 4.508-4.603 4.508-4.603l4.888 4.223 5.647-10.677" fill="none"/><path style="fill:#fff;fill-opacity:1;fill-rule:evenodd;stroke:#fff;stroke-width:.180755;stroke-linejoin:round;stroke-opacity:0" d="m51.316 88.234 2.196-17.073-.274 18.44-22.1-.802z"/><path style="fill:#fff;fill-opacity:1;fill-rule:evenodd;stroke:#fff;stroke-width:.160749;stroke-linejoin:round;stroke-opacity:0" d="m32.464 68.833-1.51 19.643-1.38-21.965 16.76 1.671z"/><path style="fill:#fff;fill-opacity:1;fill-rule:evenodd;stroke:#fff;stroke-width:.188065;stroke-linejoin:round;stroke-opacity:0" d="m31.324 88.56 6.478-13.833 7.092 6.592L55.18 65.995l-10.884 11.31-6.671-6.636Z"/><path style="fill:#fff;fill-opacity:1;fill-rule:evenodd;stroke:url(#h);stroke-width:.0459024;stroke-linejoin:round;stroke-opacity:0" d="M42.323 83.092c-2.538-2.197-3.168-2.728-3.23-2.722-.079.007-.877.8-3.787 3.765-.596.608-1.084 1.095-1.084 1.083 0-.018 1.306-1.759 4.23-5.639l.53-.704 3.041 2.874c2.221 2.099 3.064 2.876 3.123 2.882.076.008.274-.31 3.482-5.611 1.87-3.091 3.292-5.752 3.3-5.745.012.013-6.39 12.484-6.43 12.525-.012.012-1.44-1.207-3.175-2.708z"/><circle style="fill:#000;fill-opacity:1;fill-rule:evenodd;stroke:#000;stroke-width:.320363;stroke-linecap:round;stroke-opacity:.0321285;paint-order:stroke markers fill" cx="-78.011" cy="-7.62" r="16.829"/><path style="fill:#fff;fill-opacity:0;fill-rule:evenodd;stroke:#fff;stroke-width:.00980926;stroke-linejoin:round;stroke-opacity:0" d="M-86.765.12s-.048.054.169-.13c.307-.261 5.92-5.393 5.92-5.393l3.303 3.453 6.166-12.987-.908 1.508-5.583 9.388-2.932-2.967z" fill="none"/><path style="fill:#fff;fill-opacity:0;fill-rule:evenodd;stroke:#fff;stroke-width:.00980926;stroke-linejoin:round;stroke-opacity:0" d="M-84.4-2.024c.1-.138 3.127-3.337 3.127-3.337l3.389 3.062 3.915-7.74" fill="none"/><path style="fill:#fff;fill-opacity:0;fill-rule:evenodd;stroke:#fff;stroke-width:.142921;stroke-linejoin:round;stroke-opacity:0" d="M-90.029 3.262s-.069.076.244-.178c.442-.361 8.537-7.44 8.537-7.44l4.765 4.764 8.892-17.918-1.309 2.08-8.053 12.952-4.228-4.094z" fill="none"/><path style="fill:#fff;fill-opacity:0;fill-rule:evenodd;stroke:#fff;stroke-width:.142921;stroke-linejoin:round;stroke-opacity:0" d="M-86.617.305c.143-.19 4.508-4.603 4.508-4.603l4.888 4.223 5.647-10.677" fill="none"/><path style="fill:#fff;fill-opacity:1;fill-rule:evenodd;stroke:#fff;stroke-width:.188065;stroke-linejoin:round;stroke-opacity:0" d="m-89.341 3.89 6.478-13.833 7.092 6.592 10.286-15.324-10.884 11.311-6.671-6.637z"/><path style="fill:#fff;fill-opacity:1;fill-rule:evenodd;stroke:url(#i);stroke-width:.0459024;stroke-linejoin:round;stroke-opacity:0" d="M-78.342-1.578C-80.88-3.775-81.51-4.305-81.573-4.3c-.078.007-.876.8-3.786 3.765-.597.608-1.084 1.095-1.084 1.083 0-.018 1.306-1.759 4.23-5.639l.53-.704 3.041 2.874c2.221 2.099 3.064 2.876 3.123 2.882.076.008.274-.31 3.482-5.611 1.87-3.091 3.292-5.751 3.3-5.745.012.013-6.39 12.484-6.43 12.525-.012.012-1.44-1.207-3.175-2.708z"/><circle style="fill:#fff;fill-opacity:1;fill-rule:evenodd;stroke:#000;stroke-width:.313056;stroke-linecap:round;stroke-opacity:.0321285;paint-order:stroke markers fill" cx="-71.268" cy="55.538" r="16.445"/><circle style="fill:#000;fill-opacity:1;fill-rule:evenodd;stroke:#000;stroke-width:.301276;stroke-linecap:round;stroke-opacity:.0321285;paint-order:stroke markers fill" cx="-71.295" cy="55.538" r="15.826"/><path style="fill:#fff;fill-opacity:0;fill-rule:evenodd;stroke:#fff;stroke-width:.00958554;stroke-linejoin:round;stroke-opacity:0" d="M-79.848 63.101s-.047.054.164-.126c.3-.256 5.785-5.27 5.785-5.27l3.229 3.374 6.024-12.691-.886 1.473-5.457 9.174-2.864-2.9z" fill="none"/><path style="fill:#fff;fill-opacity:0;fill-rule:evenodd;stroke:#fff;stroke-width:.00958554;stroke-linejoin:round;stroke-opacity:0" d="M-77.537 61.006c.097-.134 3.055-3.26 3.055-3.26l3.312 2.991 3.826-7.562" fill="none"/><path style="fill:#fff;fill-opacity:0;fill-rule:evenodd;stroke:#fff;stroke-width:.139661;stroke-linejoin:round;stroke-opacity:0" d="M-83.038 66.172s-.067.074.238-.174c.432-.353 8.343-7.271 8.343-7.271l4.656 4.656 8.689-17.51-1.279 2.033-7.87 12.657-4.13-4z" fill="none"/><path style="fill:#fff;fill-opacity:0;fill-rule:evenodd;stroke:#fff;stroke-width:.139661;stroke-linejoin:round;stroke-opacity:0" d="M-79.704 63.282c.14-.185 4.406-4.498 4.406-4.498l4.776 4.127 5.518-10.433" fill="none"/><path style="fill:#fff;fill-opacity:1;fill-rule:evenodd;stroke:#fff;stroke-width:.17686;stroke-linejoin:round;stroke-opacity:0" d="m-82.808 66.19 8.068-10.818 5.638 5.598 9.588-15.828-10.236 10.637-6.274-6.242z"/><path style="fill:#fff;fill-opacity:1;fill-rule:evenodd;stroke:url(#j);stroke-width:.0431676;stroke-linejoin:round;stroke-opacity:0" d="M-71.605 61.22c-2.387-2.065-2.98-2.565-3.039-2.56-.073.007-.823.753-3.56 3.541-.561.572-1.02 1.03-1.02 1.019 0-.017 1.228-1.654 3.978-5.303l.498-.662 2.86 2.702c2.09 1.974 2.881 2.705 2.937 2.711.072.007.258-.292 3.275-5.277 1.759-2.907 3.096-5.409 3.102-5.403.012.012-6.007 11.74-6.045 11.779-.012.01-1.355-1.135-2.986-2.546z"/></svg>